<svg xmlns="http://www.w3.org/2000/svg" viewBox="0 0 512 512"  xmlns:v="https://vecta.io/nano"><path d="M467.3 493.4l9-28.5v-35.4c0-70-49.5-128.4-115.4-142.2-13.6 7.2-29.2 11.4-45.7 11.4s-32.1-4.1-45.7-11.4c-65.9 13.8-115.4 72.2-115.4 142.2v35.4l9 28.5 155.6 9 148.6-9z" fill="#00a86b"/><path d="M188.1 166.7s-28.1-37.8-29.3-92.4c-.1-3.1 2.6-5.4 5.7-5 6.3.9 16.7 1.6 26.4-1C220.4 60.4 249.4 1.9 300.4.2s61 22.1 61 22.1 18.8-11.2 46.8-7.4c42 5.7 78.9 69.7 41.4 157.6l-261.5-5.8z" fill="#424a5e"/><path d="M174 183.9c0 19 15.4 30.1 29 30.1l14.6-12.8c0-.1 12.8-17.3 12.8-17.4l-12.8-17.4c-4.3-2.4-9.3-3.7-14.6-3.7-13.6.1-25.1 9-29 21.2h0z" fill="#ebbaa1"/><path d="M202.9 205c-13.6 0-25-8.9-29-21.1-.9 2.9-1.5 6-1.5 9.3 0 16.8 13.6 30.4 30.4 30.4 6 0 11.6-1.7 16.3-4.7l8-10.6-9.6-7c-4.3 2.4-9.3 3.7-14.6 3.7h0z" fill="#e8a990"/><path d="M456.4 183.9c0 19-15.4 30.1-29 30.1l-14.6-12.8c0-.1-12.8-17.3-12.8-17.4l12.8-17.4c4.3-2.4 9.3-3.7 14.6-3.7 13.6.1 25.1 9 29 21.2h0z" fill="#ebbaa1"/><path d="M427.5 205c13.6 0 25-8.9 29-21.1.9 2.9 1.5 6 1.5 9.3 0 16.8-13.6 30.4-30.4 30.4-6 0-11.6-1.7-16.3-4.7l-8-10.6 9.6-7c4.3 2.4 9.3 3.7 14.6 3.7h0z" fill="#e8a990"/><path d="M315.2 289.1c53.9 0 97.6-37.9 97.6-106.6v-28c0-8.5-3.5-16.8-9.8-22.6-18.2-16.8-38.5-45.9-46.7-58.1a5.13 5.13 0 0 0-8.1-.6c-41.1 44.9-94.4 59.9-118.2 64.5-7.3 1.4-12.5 7.8-12.5 15.2v29.5c0 64.9 43.8 106.7 97.7 106.7z" fill="#fdd4bb"/><path d="M235.8 512h158.7l7.7-9.3-7.7-9.3H235.8l-7.7 9.3 7.7 9.3z" fill="#00935b"/><path d="M269.1 287.2l-.2 3.6c0 25.5 20.7 46.2 46.2 46.2s46.2-20.7 46.2-46.2c0-1.2-.1-2.4-.2-3.6h-92z" fill="#ebbaa1"/><path d="M476.3 493.4l-37 9-37-9v-28.5h74v28.5zm-322.2 0l37 9 37-9v-28.5h-74v28.5z" fill="#fdd4bb"/><path d="M410 512h61.3a4.95 4.95 0 0 0 5-5v-13.6H410l-7.7 9.3 7.7 9.3zm-250.9 0h61.3l7.7-9.3-7.7-9.3h-66.3V507a4.95 4.95 0 0 0 5 5h0z" fill="#f7c4a8"/><path d="M410 493.4v-72.8c0-4.3-3.5-7.7-7.7-7.7s-7.7 3.5-7.7 7.7v72.8l7.7 9.3 7.7-9.3z" fill="#03e086"/><path d="M394.5,493.4H410V512h-15.5V493.4z" fill="#13bf75"/><path d="M235.8 493.4v-72.8c0-4.3-3.5-7.7-7.7-7.7s-7.7 3.5-7.7 7.7v72.8l7.7 9.3 7.7-9.3z" fill="#03e086"/><path d="M220.4,493.4h15.5V512h-15.5V493.4z" fill="#13bf75"/><path d="M315.2 280.1c-53.9 0-97.6-43.7-97.6-97.6V201c0 53.9 43.7 97.6 97.6 97.6s97.6-43.7 97.6-97.6v-18.6c0 54-43.7 97.7-97.6 97.7z" fill="#f7c4a8"/><path d="M315.2 215.8c-15.4 0-28.2 11-31 25.6-.6 3.1 1.7 6 4.9 6h52.2c3.2 0 5.5-2.9 4.9-6-2.8-14.6-15.6-25.6-31-25.6h0z" fill="#424a5e"/><g fill="#00a86b"><path d="M95.3 230.8l22.4 9c8.7 0 15.7-9.4 15.7-24.7v-9.7c0-8.7-7-15.7-15.7-15.7h-27l-6.5 21.8 11.1 19.3z"/><path d="M117.7 230.8H95.3l-7.9 9.9 10 8.7h20.3c8.7 0 15.7-7 15.7-15.7v-18.6c0 8.6-7 15.7-15.7 15.7z"/></g><path d="M65.9 71.2l-.2-1.9c-.9-7.8-7.5-13.6-15.4-13.6H35.1c-8.7 0-15.5 7.1-15.5 15.5l23.2 9 23.1-9z" fill="#00935b"/><path d="M19.6 71.2c0 .6 0 1.2.1 1.8l2 16.8 22.1 9 24.3-9-2.2-18.6H19.6z" fill="#00a86b"/><path d="M25.8 208.1c4.6 24.1 15.7 31.7 29.8 31.7l39.7-9L79.9 94.3c-.3-2.5-2.4-4.4-5-4.4H18c-3 0-5.3 2.6-5 5.6l12.8 112.6z" fill="#03e086"/><path d="M55.6 230.8c-14.1 0-26.2-9.5-29.8-22.7l1.6 13.8c1.8 15.6 15 27.5 30.8 27.5h39.3l-2.1-18.6H55.6z" fill="#13bf75"/><path d="M259.2 189.9c.6-.2 13.7-3.8 25.1-14.9 3.1-3 3.1-7.9.1-11s-7.9-3.1-11-.1c-8.3 8.1-18.1 11-18.3 11.1-4.1 1.1-6.5 5.4-5.4 9.5.9 3.5 4.1 5.7 7.5 5.7a7.47 7.47 0 0 0 2-.3zm112.2 0a7.47 7.47 0 0 0 2 .3c3.4 0 6.5-2.3 7.5-5.7 1.1-4.1-1.3-8.4-5.4-9.6-.1 0-10-2.9-18.3-11.1-3.1-3-8-3-11 .1s-3 8 .1 11c11.4 11.1 24.6 14.8 25.1 15h0z" fill="#424a5e"/><path d="M139.4 344.9a8.13 8.13 0 0 1-4.2-1.2c-3.6-2.3-4.6-7.1-2.3-10.7 15-23.2 33.4-42.5 53.2-55.8 3.6-2.4 8.4-1.4 10.8 2.1s1.4 8.4-2.1 10.8c-18.1 12.1-35 29.9-48.8 51.3-1.6 2.3-4.1 3.5-6.6 3.5h0zm0-47c-1.7 0-3.5-.6-4.9-1.8a7.77 7.77 0 0 1-1.1-10.9c.5-.6 12.2-14.7 30.8-26.5 3.6-2.3 8.4-1.2 10.7 2.4s1.2 8.4-2.4 10.7c-16.4 10.4-27 23.1-27.1 23.3-1.5 1.9-3.8 2.8-6 2.8zm351.8 47c-2.5 0-5-1.3-6.5-3.6-13.8-21.5-30.7-39.2-48.8-51.3-3.6-2.4-4.5-7.2-2.1-10.8s7.2-4.5 10.8-2.1c19.8 13.3 38.2 32.6 53.2 55.8 2.3 3.6 1.3 8.4-2.3 10.7-1.4.9-2.8 1.3-4.3 1.3h0zm0-47c-2.2 0-4.5-1-6-2.8-.1-.1-10.7-12.9-27.1-23.3-3.6-2.3-4.7-7.1-2.4-10.7s7.1-4.7 10.7-2.4c18.6 11.8 30.3 25.9 30.8 26.5a7.77 7.77 0 0 1-1.1 10.9c-1.4 1.3-3.1 1.8-4.9 1.8h0z" fill="#03e086"/></svg>