<svg xmlns="http://www.w3.org/2000/svg" viewBox="0 0 512 512"  xmlns:v="https://vecta.io/nano"><path d="M128.9 166.7s-28.1-37.8-29.3-92.4c-.1-3.1 2.6-5.4 5.7-5 6.3.9 16.7 1.6 26.4-1C161.2 60.4 190.2 1.9 241.2.2c51.1-1.7 61 22.1 61 22.1S321 11.1 349 14.8c42 5.7 78.9 69.7 41.4 157.6l-261.5-5.7z" fill="#424a5e"/><path d="M114.8 183.9c0 19.9 15.4 30.1 29 30.1l14.6-12.8v-.2l9-18.6-9-15.9c-4.3-2.4-9.3-3.7-14.6-3.7a30.45 30.45 0 0 0-29 21.1z" fill="#ebbaa1"/><path d="M143.7 205c-13.6 0-25-8.9-29-21.1-.9 2.9-1.5 6-1.5 9.3 0 16.8 13.6 30.4 30.4 30.4 6 0 11.6-1.7 16.3-4.7l7.9-8.1-9.5-9.6c-4.3 2.5-9.3 3.8-14.6 3.8h0z" fill="#e8a990"/><path d="M397.2 183.9c0 19.9-15.4 30.1-29 30.1l-14.6-12.8v-.2l-9-18.6 9-15.9c4.3-2.4 9.3-3.7 14.6-3.7a30.45 30.45 0 0 1 29 21.1z" fill="#ebbaa1"/><path d="M368.3 205c13.6 0 25-8.9 29-21.1.9 2.9 1.5 6 1.5 9.3 0 16.8-13.6 30.4-30.4 30.4-6 0-11.6-1.7-16.3-4.7l-7.9-8.1 9.5-9.6c4.3 2.5 9.3 3.8 14.6 3.8z" fill="#e8a990"/><path d="M256 289.1c53.9 0 97.6-33.1 97.6-106.6v-28c0-8.5-3.5-16.8-9.8-22.6-18.2-16.8-38.5-45.9-46.7-58.1a5.13 5.13 0 0 0-8.1-.6c-41.1 44.9-94.4 59.9-118.2 64.5-7.3 1.4-12.5 7.8-12.5 15.2v29.5c.1 65 43.8 106.7 97.7 106.7z" fill="#fdd4bb"/><path d="M301.7 287.3c-13.6 7.2-29.2 11.4-45.7 11.4s-32.1-4.1-45.7-11.4c-65.9 13.8-115.4 72.2-115.4 142.2v63.9l161.1 9 161.1-9v-63.9c0-70-49.5-128.4-115.4-142.2h0z" fill="#13bf75"/><path d="M94.9,512l55.1-9.3l29.7,9.3h152.6l34.4-9.3l50.4,9.3v-18.6H94.9V512z" fill="#00935b"/><path d="M210 287.2l-.2 3.6c0 25.5 20.7 46.2 46.2 46.2s46.2-20.7 46.2-46.2c0-1.2-.1-2.4-.2-3.6h-92z" fill="#ebbaa1"/><path d="M256 215.8c-15.4 0-28.2 11-31 25.6-.6 3.1 1.7 6 4.9 6h52.2c3.2 0 5.5-2.9 4.9-6-2.8-14.6-15.6-25.6-31-25.6h0z" fill="#424a5e"/><path d="M374.7 271.4l23.2 18.2c0 .2-.1.4-.1.6.1 0 .2-.1.3-.1.3 12.7 12 22.1 20.9 22.6 4.1.2 8-.6 11.5-2.2a5.12 5.12 0 0 1 5.2.5c4.7 3.5 10.5 5.5 16.8 5.5 12.6 0 26.9-10.9 26.9-28.7.1 0 .2 0 .2-.1-.8-2.6-2-5-3.4-7.2 1.7-3.4 2.5-7.3 2.2-11.5-.8-10.4-9.1-18.9-19.5-20.1-4.5-.5-8.7.4-12.4 2.2-3.4-7.8-11.2-13.3-20.2-13.3-12.2 0-22 9.9-22 22 0 .7 0 1.4.1 2.2h-26.5c-4.9.2-7 6.4-3.2 9.4h0zm-240.6-9.2h-26.5c.1-.7.1-1.4.1-2.2 0-12.2-9.9-22-22-22-9.1 0-16.8 5.5-20.2 13.3-3.7-1.9-7.9-2.7-12.4-2.2-10.4 1.2-18.7 9.7-19.5 20.1-.3 4.1.5 8.1 2.2 11.5-1.4 2.1-2.5 4.4-3.3 6.9 0 18.1 14.4 28.7 27 28.7 6.3 0 12.1-2.1 16.9-5.6a5.12 5.12 0 0 1 5.2-.5c3.5 1.6 7.4 2.4 11.6 2.2 9-.4 21-11.1 21-22.7v-.1l23.2-18.2c3.7-3 1.6-9.2-3.3-9.2h0z" fill="#ebf2f8"/><path d="M401 493.4l-80-93.8s20.9-27.3 7.7-40.5c-9.2-9.2-27.9-.2-38.4 6.1 6.3 19.5.8 45.1-28 63.8l54.3 64.4 50.1 9.3 34.3-9.3z" fill="#ebbaa1"/><path d="M256 337c-35.4 0-50.4 33.7-50.4 33.7s-14.4-20.1-27.6-6.9 8 41.8 8 41.8l-75 87.8 39 9.3 45.4-9.3 45.3-53.5C320.9 408.8 293.5 337 256 337z" fill="#fdd4bb"/><path d="M111 493.4L95.1 512h84.6l15.7-18.6H111zm145-213.3c-53.9 0-97.6-43.7-97.6-97.6V201c0 53.9 43.7 97.6 97.6 97.6s97.6-43.7 97.6-97.6v-18.6c0 54-43.7 97.7-97.6 97.7z" fill="#f7c4a8"/><path d="M316.6,493.4l15.7,18.6h84.6L401,493.4H316.6z" fill="#e8a990"/><path d="M93 303.4c-4.1.2-8.1-.6-11.6-2.2a5.12 5.12 0 0 0-5.2.5c-4.7 3.5-10.5 5.6-16.9 5.6-12.7 0-23.4-8.3-27-19.7-1.3 3.9-1.7 8.2-1 12.7 1.9 12.5 12.3 22.2 24.9 23.3a27.74 27.74 0 0 0 21.3-7.3c4.3 2.6 9.4 4 14.8 3.5 9.9-.8 18.3-7.7 21.3-17.1 1.4-4.6 1.4-9 .4-13-4 7.8-12 13.2-21 13.7h0zm359.6 4c-6.3 0-12.2-2.1-16.9-5.6a5.12 5.12 0 0 0-5.2-.5c-3.5 1.6-7.4 2.4-11.6 2.2-9-.4-17-5.8-21-13.6-.9 4-1 8.4.5 12.9 3 9.4 11.4 16.3 21.3 17.1 5.5.5 10.6-.9 14.8-3.5 5.5 5.1 13 8 21.3 7.3 12.6-1.1 23-10.8 24.9-23.3.7-4.5.3-8.8-1-12.7-3.7 11.4-14.4 19.7-27.1 19.7z" fill="#d6e3ed"/><path d="M199.9 184.7c.2 0 1.7-.5 4-1.4v1.1c0 4.3 3.5 7.8 7.8 7.8s7.8-3.5 7.8-7.8v-9.9c1.9-1.4 3.7-3 5.6-4.8 3.1-3 3.1-7.9.1-11s-7.9-3.1-11-.1c-8.3 8.1-18 11-18.3 11.1-4.1 1.1-6.5 5.4-5.4 9.5.9 3.4 4.1 5.7 7.5 5.7.5.1 1.2 0 1.9-.2h0zm92.8-10.1v9.9c0 4.3 3.5 7.8 7.8 7.8s7.8-3.5 7.8-7.8v-1.1c2.3.9 3.8 1.3 4 1.4a7.47 7.47 0 0 0 2 .3c3.4 0 6.5-2.3 7.5-5.7 1.1-4.1-1.3-8.4-5.4-9.5-.1 0-9.9-2.9-18.3-11.1-3.1-3-8-3-11 .1s-3 8 .1 11c1.7 1.6 3.6 3.2 5.5 4.7h0z" fill="#424a5e"/></svg>