<svg xmlns="http://www.w3.org/2000/svg" viewBox="0 0 512 512"  xmlns:v="https://vecta.io/nano"><path d="M408.1 493.4l9-28.5v-35.4c0-70-49.5-128.4-115.4-142.2-13.6 7.2-29.2 11.4-45.7 11.4s-32.1-4.1-45.7-11.4c-65.9 13.8-115.4 72.2-115.4 142.2v35.4l9 28.5 155.6 9 148.6-9z" fill="#00a86b"/><path d="M128.9 166.7s-28.1-37.8-29.3-92.4c-.1-3.1 2.6-5.4 5.7-5 6.3.9 16.7 1.6 26.4-1C161.2 60.4 190.2 1.9 241.2.2c51.1-1.7 61 22.1 61 22.1S321 11.1 349 14.8c42 5.7 78.9 69.7 41.4 157.6l-261.5-5.7z" fill="#424a5e"/><path d="M114.8 183.9c0 19 15.4 30.1 29 30.1l14.6-12.8c0-.1 12.8-17.3 12.8-17.4l-12.8-17.4c-4.3-2.4-9.3-3.7-14.6-3.7-13.6.1-25.1 9-29 21.2h0z" fill="#ebbaa1"/><path d="M143.7 205c-13.6 0-25-8.9-29-21.1-.9 2.9-1.5 6-1.5 9.3 0 16.8 13.6 30.4 30.4 30.4 6 0 11.6-1.7 16.3-4.7l8-10.6-9.6-7c-4.3 2.4-9.3 3.7-14.6 3.7h0z" fill="#e8a990"/><path d="M397.2 183.9c0 19-15.4 30.1-29 30.1l-14.6-12.8c0-.1-12.8-17.3-12.8-17.4l12.8-17.4c4.3-2.4 9.3-3.7 14.6-3.7 13.6.1 25.1 9 29 21.2h0z" fill="#ebbaa1"/><path d="M368.3 205c13.6 0 25-8.9 29-21.1.9 2.9 1.5 6 1.5 9.3 0 16.8-13.6 30.4-30.4 30.4-6 0-11.6-1.7-16.3-4.7l-8-10.6 9.6-7c4.3 2.4 9.3 3.7 14.6 3.7z" fill="#e8a990"/><path d="M256 289.1c53.9 0 97.6-37.9 97.6-106.6v-28c0-8.5-3.5-16.8-9.8-22.6-18.2-16.8-38.5-45.9-46.7-58.1a5.13 5.13 0 0 0-8.1-.6c-41.1 44.9-94.4 59.9-118.2 64.5-7.3 1.4-12.5 7.8-12.5 15.2v29.5c.1 64.9 43.8 106.7 97.7 106.7z" fill="#fdd4bb"/><path d="M176.7 512h158.7l7.7-9.3-7.7-9.3H176.7l-7.7 9.3 7.7 9.3z" fill="#00935b"/><path d="M210 287.2l-.2 3.6c0 25.5 20.7 46.2 46.2 46.2s46.2-20.7 46.2-46.2c0-1.2-.1-2.4-.2-3.6h-92z" fill="#ebbaa1"/><path d="M417.1 493.4l-37 9-37-9v-28.5h74v28.5zm-322.2 0l37 9 37-9v-28.5h-74v28.5z" fill="#fdd4bb"/><path d="M350.8 512h61.3a4.95 4.95 0 0 0 5-5v-13.6h-66.3l-7.7 9.3 7.7 9.3zm-250.9 0h61.3l7.7-9.3-7.7-9.3H94.9V507a4.95 4.95 0 0 0 5 5h0z" fill="#f7c4a8"/><path d="M350.8 493.4v-72.8c0-4.3-3.5-7.7-7.7-7.7s-7.7 3.5-7.7 7.7v72.8l7.7 9.3 7.7-9.3z" fill="#03e086"/><path d="M335.3,493.4h15.5V512h-15.5V493.4z" fill="#13bf75"/><path d="M176.7 493.4v-72.8c0-4.3-3.5-7.7-7.7-7.7s-7.7 3.5-7.7 7.7v72.8l7.7 9.3 7.7-9.3z" fill="#03e086"/><path d="M161.2,493.4h15.5V512h-15.5V493.4z" fill="#13bf75"/><path d="M256 280.1c-53.9 0-97.6-43.7-97.6-97.6V201c0 53.9 43.7 97.6 97.6 97.6s97.6-43.7 97.6-97.6v-18.6c0 54-43.7 97.7-97.6 97.7z" fill="#f7c4a8"/><path d="M195 192.3c1.4 2.5 4.1 4 6.8 4 1.3 0 2.6-.3 3.8-1l20-11.3c2.5-1.4 4-4.1 4-6.9-.1-2.9-1.7-5.4-4.2-6.8l-20-10.3c-3.8-2-8.5-.5-10.5 3.3s-.5 8.5 3.3 10.5l7.2 3.7-7.5 4.2c-3.7 2.1-5 6.9-2.9 10.6h0zm91.4-8.3l20 11.3c1.2.7 2.5 1 3.8 1 2.7 0 5.3-1.4 6.8-4 2.1-3.7.8-8.5-3-10.6l-7.5-4.2 7.2-3.7c3.8-2 5.3-6.6 3.3-10.5s-6.6-5.3-10.5-3.3l-20 10.3c-2.5 1.3-4.2 3.9-4.2 6.8.1 2.9 1.7 5.5 4.1 6.9h0zm-70.6 43.3c-2.7 3.3-2.2 8.3 1.2 10.9 3.3 2.7 8.2 2.2 10.9-1.2 1-1.3 3.9-3.8 6.3-4 .6.4 1.8 1.5 2.6 2.3 3.7 3.5 9.2 8.7 19.2 8.7s15.5-5.2 19.2-8.7c.8-.8 2-1.9 2.6-2.3 2.4.2 5.3 2.7 6.3 4 2.7 3.3 7.6 3.8 10.9 1.2 3.3-2.7 3.9-7.6 1.2-10.9-.8-1-8.1-9.7-18.6-9.7-6.2 0-10.1 3.8-13 6.5-3.1 2.9-4.9 4.5-8.5 4.5s-5.4-1.5-8.5-4.5c-2.9-2.8-6.9-6.5-13-6.5-10.7 0-18 8.7-18.8 9.7h0z" fill="#424a5e"/><path d="M91 324.9l-.6-2.5c-.9-3.5 1-5.9 1.8-6.7.8-.9 3.1-2.8 6.7-2 4.2.9 8.3-1.7 9.3-5.9s-1.7-8.3-5.9-9.3c-7.7-1.7-15.6.6-21.2 6.3-5.5 5.7-7.7 13.7-5.7 21.3l.6 2.5c.5 1.9.2 3.9-.9 5.6s-2.8 2.8-4.7 3.2l-3 .5c-7.8 1.4-14.2 6.6-17.1 14s-1.8 15.5 2.9 21.9c1.3 1.8 1.8 4 1.2 6.2-.6 2.1-2.1 3.9-4.1 4.7l-1.4.6c-6.8 2.8-11.7 8.5-13.4 15.7-1.7 7.1.1 14.4 4.8 20l4.2 4.9c1.4 1.6 1.9 3.6 1.6 5.7s-1.4 3.8-3.2 5l-4.5 2.9c-5.8 3.8-9.5 9.8-10.2 16.7-.7 6.8 1.7 13.5 6.6 18.4l4.4 4.4c2.1 2.1 2.2 4.5 2.1 5.8s-.7 3.6-3.2 5.2c-3.6 2.4-4.6 7.2-2.2 10.8 1.5 2.3 4 3.5 6.5 3.5 1.5 0 3-.4 4.3-1.3 5.7-3.8 9.4-9.8 10.1-16.7.7-6.8-1.7-13.5-6.6-18.3l-4.4-4.4a7.25 7.25 0 0 1-2.1-5.8c.2-2.2 1.4-4.1 3.2-5.2l4.5-2.9c5.5-3.6 9.1-9.3 10.1-15.8.9-6.5-1-13-5.2-18l-4.2-4.9c-1.5-1.8-2.1-4.1-1.5-6.3.5-2.2 2.1-4 4.2-4.9l1.4-.6c6.5-2.7 11.3-8.1 13.2-14.9s.5-13.9-3.7-19.6c-2.2-2.9-1.4-5.8-.9-6.9.4-1.1 1.8-3.8 5.4-4.4l3-.5c6.2-1.1 11.6-4.8 15-10 3.2-5.4 4.3-11.9 2.8-18h0zm383 165c-2.5-1.6-3-4-3.2-5.2s0-3.7 2.1-5.8l4.4-4.4c4.9-4.8 7.3-11.5 6.6-18.4s-4.4-12.9-10.2-16.7l-4.5-2.9c-1.7-1.1-2.9-2.9-3.2-5s.3-4.1 1.6-5.7l4.2-4.9c4.8-5.6 6.5-12.9 4.8-20s-6.6-12.9-13.4-15.7l-1.4-.6c-2-.8-3.6-2.6-4.1-4.7-.6-2.1-.2-4.4 1.2-6.2 4.7-6.3 5.8-14.5 2.9-21.9s-9.3-12.6-17.1-14l-3-.5a7.11 7.11 0 0 1-4.7-3.2c-1.1-1.7-1.4-3.7-.9-5.6l.6-2.5c1.9-7.7-.2-15.7-5.7-21.3s-13.4-8-21.2-6.3c-4.2.9-6.8 5.1-5.9 9.3s5.1 6.8 9.3 5.9c3.5-.8 5.8 1.1 6.7 2 .8.9 2.7 3.2 1.8 6.7l-.6 2.5c-1.5 6.1-.5 12.6 2.9 17.8 3.4 5.3 8.9 8.9 15 10l3 .5c3.5.6 4.9 3.3 5.4 4.4.4 1.1 1.2 4-.9 6.9-4.2 5.6-5.6 12.8-3.7 19.6s6.7 12.2 13.2 14.9l1.4.6c2.1.9 3.7 2.7 4.2 4.9a7.24 7.24 0 0 1-1.5 6.3l-4.2 4.9c-4.2 5-6.2 11.5-5.2 18 .9 6.5 4.6 12.2 10.1 15.8l4.5 2.9c1.8 1.2 3 3.1 3.2 5.2.2 2.2-.5 4.3-2.1 5.8l-4.4 4.4c-4.9 4.8-7.2 11.5-6.6 18.3.7 6.8 4.3 12.9 10.1 16.7 1.3.9 2.8 1.3 4.3 1.3 2.5 0 5-1.2 6.5-3.5 2.2-3.5 1.2-8.3-2.3-10.6h0zM66.1 209.7l3.1 1.8c2.1 1.2 2.8 3.8 1.8 5.9l-1.2 2.3c-2.9 5.7-2.9 12.5 0 18.2s8.4 9.7 14.8 10.6h.2c1.8.3 2.7 1.4 3.1 2.1 1.5 2.4 4 3.7 6.6 3.7 1.4 0 2.8-.4 4-1.1 3.7-2.2 4.8-7 2.6-10.7a19.91 19.91 0 0 0-14.1-9.4h-.2c-2-.3-2.9-1.6-3.3-2.4s-.9-2.3 0-4l1.2-2.3c4.9-9.5 1.4-21.1-7.9-26.4l-3.1-1.8c-1.9-1.1-2.2-2.8-2.2-3.5s0-2.5 1.7-3.8c5.2-4.1 8.1-10.5 7.6-17.1-.3-4.3-4-7.5-8.3-7.2s-7.5 4-7.2 8.3c0 .7 0 2.5-1.7 3.8-5.3 4.1-8.1 10.5-7.6 17.2.5 6.5 4.3 12.5 10.1 15.8zm359 23.4h-.2a19.91 19.91 0 0 0-14.1 9.4c-2.2 3.7-1.1 8.4 2.6 10.7 1.3.8 2.7 1.1 4 1.1 2.6 0 5.2-1.3 6.6-3.7.4-.7 1.3-1.8 3.1-2.1h.2c6.3-1 11.9-4.9 14.8-10.6s2.9-12.5 0-18.2l-1.2-2.3c-1.1-2.1-.3-4.7 1.8-5.9l3.1-1.8c5.8-3.3 9.6-9.3 10-15.9s-2.4-13.1-7.6-17.2c-1.7-1.3-1.7-3.1-1.7-3.8.3-4.3-2.9-8-7.2-8.3s-8 2.9-8.3 7.2c-.5 6.6 2.4 13.1 7.6 17.1 1.7 1.3 1.7 3.1 1.7 3.8s-.4 2.5-2.2 3.5l-3.1 1.8c-9.3 5.3-12.8 16.9-7.9 26.4l1.2 2.3c.9 1.8.4 3.3 0 4-.3.9-1.2 2.2-3.2 2.5h0z" fill="#03e086"/></svg>