<svg xmlns="http://www.w3.org/2000/svg" xmlns:xlink="http://www.w3.org/1999/xlink" viewBox="0 0 512 512" xmlns:v="https://vecta.io/nano"><path d="M499 259.1c8.7 1.7 14.4 10.1 12.7 18.8l-6.3 32.3c-1.8 9-10.6 14.7-19.6 12.5-8.4-2.1-13.5-10.6-11.8-19.1l.2-.9-41.8 1.9c-1.3.1-2.4.9-2.7 2.1a182.66 182.66 0 0 1-16 35.1c-.7 1.1-.6 2.5.3 3.5l18.5 22a19.36 19.36 0 0 1 13.3-5.3c4.1 0 8.2 1.3 11.7 4 8.5 6.5 10.1 18.6 3.6 27.1l-5.4 7c-6.3 8.2-18 10.4-26.6 4.6-7.4-5.1-10-14.2-7.4-22.1L395 370.9c-1.2-.5-2.6-.2-3.5.8-12.3 13.6-26.7 25.2-42.6 34.5-1.1.6-1.7 1.9-1.5 3.1l6.8 41.6 5.9-2.4c8.5-3.4 18.1.9 21.1 9.7 2.8 8.2-1.6 17.1-9.6 20.3l-30.2 12.1c-8.5 3.4-18.1-.9-21.1-9.7-2.8-8.2 1.6-17.1 9.6-20.3l.8-.3-24.3-34.1c-.7-1-2-1.5-3.3-1.2-14.5 3.8-29.8 5.8-45.5 5.8-12.4 0-24.6-1.3-36.3-3.7-1.2-.2-2.5.3-3.2 1.3l-24.4 38.2.9.3c7.9 2.9 12.8 10.4 12.8 18.3 0 2.2-.4 4.5-1.2 6.7 0 11.4-8.8 17.6-19.5 13.7l-29.9-10.9c-10-3.6-15.2-14.6-11.8-24.7 3.6-10.4 15.4-15.6 25.6-11.8l.7.2 5-44.8c.1-1.3-.5-2.5-1.6-3-19-9.8-36-22.8-50.3-38.4-.9-.9-2.2-1.2-3.4-.8l-36.5 15c4.1 7.7 1.8 17.5-5.7 22.5-7.9 5.2-18.5 2.8-23.9-5l-9.4-13.5c-5.2-7.5-4-18 3.2-23.7 7.7-6 18.6-4.5 24.4 3.1L98.9 341c.9-1 1-2.4.4-3.5-10.6-19-17.8-40.2-20.9-62.6-.2-1.3-1.1-2.3-2.3-2.6L35 262.8v4.8a17.14 17.14 0 0 1-5.2 12.3c-3.2 3.2-7.6 5.1-12.4 5.1C7.8 285 0 277.2.1 267.6l.3-29.9c.1-9.8 8.2-18 17.9-17.7 9.5.2 17 8 17 17.5L76 228c1.2-.3 2.2-1.3 2.3-2.6 3.2-23.7 11-46 22.5-65.9.6-1.1.5-2.5-.3-3.5L81 133.1l-1.7 2.2c-5.2 6.9-15.3 8.1-22 2.5-6.3-5.3-7.1-14.8-2.1-21.3l13-17.1c3-4 7.6-6.1 12.2-6.1 3.2 0 6.5 1 9.2 3.1 6.4 4.8 7.9 13.7 3.7 20.4l27.2 11.8c1.2.5 2.6.2 3.5-.8 12.8-14.1 27.9-26.1 44.6-35.6 1.1-.6 1.7-1.9 1.5-3.1l-6.3-41.7-5.9 2.3c-8.5 3.3-18.1-1.2-21-10-2.7-8.2 1.8-17.1 9.9-20.2l30.3-11.7c8.5-3.3 18.1 1.2 21 10 2.7 8.2-1.8 17.1-9.9 20.2l-.8.3 23.9 34.4a3.06 3.06 0 0 0 3.2 1.2 181.2 181.2 0 0 1 43.2-5.2h0c1.3 0 2.5-.8 2.9-2l7.9-22.1c-9.2-2.9-15.3-11.9-14.1-21.8 1.3-11.2 12-19.1 23.2-17.7l10.9 1.4c11 1.5 19.3 11.4 18.1 22.5-.9 8.6-7.2 15.4-15.1 17.4l2.7 24c.1 1.3 1.1 2.3 2.4 2.6 18.4 4 35.7 10.9 51.5 20 1.1.6 2.5.5 3.4-.3l32.8-26.6-5-4c-7.2-5.7-8.2-16.2-2.1-23.1 5.7-6.5 15.6-7.1 22.4-1.7L425 57.5c7.2 5.7 8.2 16.2 2.1 23.1-5.7 6.5-15.6 7.1-22.4 1.7l-.7-.5-17.4 38.2c-.5 1.1-.3 2.5.6 3.4 12.3 12.6 22.9 27.1 31.1 42.9.6 1.1 1.8 1.8 3.1 1.6l24.9-3.5c-3.7-10.2 1.8-21.5 12.2-24.9 9.9-3.3 20.7 2.3 24.3 12.1l5.7 15.4c3.6 9.7-.7 20.8-10.2 25-9.1 4-19.4.4-24.3-7.7l-20.6 14c-1.1.7-1.6 2.1-1.2 3.3 4.2 15.4 6.5 31.6 6.5 48.3 0 2.8-.1 5.6-.2 8.3-.1 1.3.7 2.4 1.8 2.9L479 278l1.2-6.2c1.7-8.7 10.1-14.4 18.8-12.7h0z" fill="#00a86b"/><g fill="#03e086"><ellipse cx="336.3" cy="160.7" rx="25.6" ry="21.4"/><circle cx="244" cy="293.8" r="27.9"/></g><g fill="#13bf75"><circle cx="352.9" cy="279.2" r="20"/><circle cx="279" cy="376.8" r="19.4"/></g><path d="M147.6 241.2c0-69.6 33.2-131.4 84.6-170.6-6 .8-11.9 2-17.7 3.4a3.06 3.06 0 0 1-3.2-1.2l-23.9-34.4.8-.3c8.1-3.1 12.6-12 9.9-20.2-2.9-8.8-12.5-13.2-21-10l-30.3 11.7c-8.1 3.1-12.6 12-9.9 20.2 2.9 8.8 12.5 13.2 21 10l5.9-2.3 6.3 41.7c.2 1.2-.4 2.5-1.5 3.1-16.7 9.5-31.7 21.5-44.6 35.6-.9 1-2.3 1.3-3.5.8l-27.2-11.8c4.2-6.7 2.7-15.6-3.7-20.4-2.8-2.1-6-3.1-9.2-3.1-4.6 0-9.2 2.1-12.2 6.1l-13 17.1c-5 6.6-4.2 16.1 2.1 21.3 6.8 5.6 16.8 4.4 22-2.5l1.7-2.2 19.5 22.9c.8 1 .9 2.4.3 3.5-11.5 19.9-19.3 42.2-22.5 65.9-.2 1.3-1.1 2.3-2.3 2.6l-40.8 9.6c.1-9.5-7.5-17.3-17-17.5-9.8-.3-17.8 8-17.9 17.7L0 267.6c-.1 9.6 7.7 17.4 17.3 17.4 4.8 0 9.2-1.9 12.4-5.1a17.14 17.14 0 0 0 5.2-12.3v-4.8l41.1 9.5c1.2.3 2.1 1.3 2.3 2.6 3.1 22.5 10.3 43.6 20.9 62.6.6 1.1.5 2.5-.4 3.5l-25.6 29c-5.7-7.6-16.7-9.2-24.4-3.1-7.2 5.7-8.4 16.2-3.2 23.7l9.4 13.5c5.4 7.7 16 10.1 23.9 5 7.5-5 9.9-14.7 5.7-22.5l36.5-15c1.2-.5 2.5-.2 3.4.8 14.3 15.6 31.3 28.6 50.3 38.4 1.1.6 1.8 1.8 1.6 3l-5 44.8-.7-.2c-10.3-3.7-22.1 1.5-25.6 11.8-3.5 10 1.8 21 11.8 24.7l29.9 10.9c10.7 3.9 19.5-2.2 19.5-13.7.8-2.2 1.2-4.5 1.2-6.7 0-8-4.9-15.5-12.8-18.3l-.9-.3 24.4-38.2c.7-1.1 2-1.6 3.2-1.3 11.7 2.4 23.9 3.7 36.3 3.7 1.5 0 3 0 4.4-.1-68.1-36-114.5-107.5-114.5-189.7h0z" fill="#00935b"/><circle cx="157.4" cy="330.3" r="20.3" fill="#03e086"/><path d="M307.3 241.2h-6.8c-4.3 0-7.7-3.5-7.7-7.7 0-4.3 3.5-7.7 7.7-7.7h6.8c4.3 0 7.7 3.5 7.7 7.7s-3.4 7.7-7.7 7.7zm-91.2 135.3h-7c-4.3 0-7.7-3.5-7.7-7.7 0-4.3 3.5-7.7 7.7-7.7h7c4.3 0 7.7 3.5 7.7 7.7s-3.4 7.7-7.7 7.7z" fill="#13bf75"/><path d="M143.9 263.7h-6.8c-4.3 0-7.7-3.5-7.7-7.7 0-4.3 3.5-7.7 7.7-7.7h6.8c4.3 0 7.7 3.5 7.7 7.7 0 4.3-3.4 7.7-7.7 7.7z" fill="#03e086"/><path d="M281.4 128.3H272c-4.3 0-7.7-3.5-7.7-7.7 0-4.3 3.5-7.7 7.7-7.7h9.4c4.3 0 7.7 3.5 7.7 7.7s-3.4 7.7-7.7 7.7z" fill="#13bf75"/><g fill="#03e086"><path d="M343.3 351.3h-10.4c-4.3 0-7.7-3.5-7.7-7.7 0-4.3 3.5-7.7 7.7-7.7h10.4c4.3 0 7.7 3.5 7.7 7.7s-3.4 7.7-7.7 7.7h0z"/><ellipse transform="matrix(.7852 -.6192 .6192 .7852 -70.2619 161.4752)" cx="197.7" cy="182" rx="53.3" ry="44.5"/></g><g fill="#b5b5b5"><path d="M2102.882-555.888c-11.512-9.655-28.409-14.297-50.69-14.297h-60.159v111.221h60.159c22.096 0 38.992-4.828 50.69-14.669 11.512-9.655 17.268-23.395 17.268-41.035.186-17.825-5.57-31.565-17.268-41.22m18.753 244.537l-61.459-88.939h-3.714-64.244v88.939h-73.9V-630.53h138.144c28.223 0 52.732 4.642 73.714 14.111 20.796 9.47 36.764 22.838 48.09 40.106s16.897 37.878 16.897 61.645-5.756 44.191-17.082 61.274c-11.326 17.268-27.666 30.265-48.647 39.364l71.671 102.68h-79.47 0z"/><use xlink:href="#B"/><path d="M2591.028-315.993c-23.581-6.87-42.52-15.783-56.817-26.738l25.066-55.703c13.74 10.027 29.894 18.011 48.833 24.138 18.753 6.127 37.692 9.098 56.446 9.098 20.982 0 36.393-3.157 46.419-9.284 10.027-6.313 15.04-14.483 15.04-24.881 0-7.613-2.971-13.926-8.913-18.939s-13.554-9.098-22.838-12.069-21.724-6.313-37.692-10.027c-24.324-5.756-44.191-11.512-59.788-17.268-15.411-5.756-28.78-15.04-39.921-27.852s-16.711-29.708-16.711-51.061c0-18.568 5.013-35.279 15.04-50.319s25.066-26.923 45.305-35.836c20.239-8.727 44.934-13.183 74.085-13.183 20.425 0 40.292 2.414 59.788 7.241s36.393 11.883 51.061 20.982l-22.838 56.075c-29.523-16.711-59.045-25.066-88.382-25.066-20.61 0-36.021 3.342-45.862 10.027s-14.854 15.411-14.854 26.366 5.756 19.125 17.082 24.324c11.326 5.385 28.78 10.584 52.175 15.783 24.324 5.756 44.191 11.512 59.788 17.268 15.411 5.756 28.78 14.854 39.921 27.295s16.711 29.337 16.711 50.69c0 18.196-5.013 34.907-15.226 49.947s-25.438 26.923-45.862 35.836c-20.425 8.727-45.12 13.183-74.271 13.183-24.881.186-49.204-3.157-72.786-10.027"/></g><g fill="#00a86b"><path d="M2914.664-326.948c-26.366-14.111-46.976-33.793-62.016-58.86s-22.653-53.475-22.653-85.04 7.613-59.974 22.653-85.04 35.65-44.748 62.016-58.86 55.889-21.167 88.754-21.167c27.666 0 52.732 4.828 75.014 14.669 22.281 9.655 41.035 23.767 56.26 41.963l-47.348 43.82c-21.539-24.881-48.276-37.321-80.213-37.321-19.682 0-37.321 4.271-52.918 12.997-15.411 8.727-27.666 20.796-36.207 36.207-8.727 15.411-12.997 33.051-12.997 52.918 0 19.682 4.271 37.321 12.997 52.918 8.727 15.411 20.796 27.666 36.207 36.207 15.411 8.727 33.051 12.997 52.918 12.997 31.936 0 58.674-12.626 80.213-37.878l47.348 43.82c-15.226 18.568-33.979 32.679-56.446 42.334s-47.533 14.669-75.199 14.669c-32.679-.186-62.016-7.241-88.382-21.353m302.281-16.71c-25.438-25.252-38.064-61.274-38.064-108.064V-630.53h73.9v176.022c0 57.189 23.767 85.783 71.114 85.783 23.024 0 40.663-6.87 52.918-20.796 12.069-13.74 18.196-35.464 18.196-64.987V-630.53h72.971v178.807c0 46.791-12.626 82.812-38.064 108.064s-60.902 37.878-106.393 37.878c-45.677 0-81.141-12.626-106.579-37.878"/><use xlink:href="#B" x="1287.487"/></g><path d="M2339.25-235.78v95.438h-10.027v-44.006h-59.788v44.006h-10.027v-95.438h10.027v42.52h59.788v-42.52h10.027zm39.363 38.25c-4.642 4.456-7.427 10.212-7.984 17.268h50.876c-.557-7.056-3.342-12.812-7.984-17.268s-10.584-6.684-17.454-6.684-12.626 2.228-17.454 6.684m52.175 24.324h-59.974c.557 7.427 3.342 13.554 8.541 18.011 5.199 4.642 11.698 6.87 19.682 6.87 4.456 0 8.541-.743 12.255-2.414s6.87-3.899 9.655-7.056l5.385 6.313c-3.157 3.899-7.241 6.684-11.883 8.727s-10.027 2.971-15.783 2.971c-7.427 0-13.926-1.485-19.496-4.642-5.756-3.157-10.027-7.427-13.369-12.997-3.157-5.57-4.828-11.883-4.828-18.753 0-7.056 1.485-13.369 4.642-18.753 2.971-5.57 7.241-9.841 12.626-12.997s11.326-4.642 18.011-4.642 12.626 1.485 17.825 4.642 9.47 7.427 12.44 12.812c2.971 5.57 4.456 11.883 4.456 18.939l-.186 2.971h0zM2450.6-241.5h9.7v101.2h-9.7v-101.2h0zm86.582 89.832c4.085-2.414 7.241-5.57 9.655-9.841 2.228-4.271 3.528-9.098 3.528-14.669 0-5.385-1.114-10.212-3.528-14.483a23.5 23.5 0 0 0-9.655-9.841c-4.085-2.414-8.727-3.528-13.554-3.528-5.013 0-9.655 1.114-13.74 3.528s-7.241 5.756-9.47 9.841c-2.228 4.271-3.528 9.098-3.528 14.483s1.114 10.398 3.528 14.669 5.57 7.613 9.47 9.841c4.085 2.228 8.541 3.528 13.74 3.528 5.013 0 9.47-1.114 13.554-3.528m5.385-56.26c5.385 2.971 9.655 7.427 12.812 12.812 3.157 5.57 4.642 11.883 4.642 18.939 0 7.241-1.485 13.554-4.642 19.125s-7.427 9.841-12.812 12.812-11.512 4.642-18.382 4.642c-5.756 0-11.141-1.3-15.783-3.528-4.642-2.414-8.541-5.942-11.512-10.584v39.921h-9.655v-98.223h9.284v14.111c2.971-4.642 6.684-8.355 11.512-10.955s10.212-3.899 16.154-3.899c6.87.186 12.997 1.671 18.382 4.828m43.076-32.124c1.3 1.485 2.042 3.157 2.042 5.199 0 1.114-.186 2.228-.557 3.528l-1.3 4.271-5.942 18.753h-6.499l4.828-19.682c-1.485-.371-2.785-1.3-3.714-2.599s-1.3-2.785-1.3-4.456c0-2.228.743-3.899 2.042-5.385 1.3-1.3 3.157-2.042 5.199-2.042 2.228.371 3.899.928 5.199 2.414m23.026 98.037c-5.385-1.671-9.47-3.714-12.44-6.313l4.456-7.613c2.971 2.414 6.684 4.271 11.326 5.756 4.456 1.485 9.284 2.228 14.111 2.228 6.499 0 11.326-1.114 14.483-3.157s4.642-5.013 4.642-8.727c0-2.599-.928-4.642-2.599-6.127s-3.899-2.599-6.499-3.342-6.127-1.485-10.584-2.228c-5.756-1.114-10.584-2.228-14.111-3.342s-6.499-3.157-9.098-5.756-3.714-6.499-3.714-11.326c0-5.942 2.414-10.955 7.427-14.669 5.013-3.899 11.883-5.756 20.796-5.756 4.642 0 9.284.557 13.926 1.857s8.541 2.785 11.512 4.828l-4.271 7.798c-5.942-4.085-12.997-6.127-21.167-6.127-6.127 0-10.769 1.114-13.926 3.342s-4.642 5.013-4.642 8.541c0 2.785.928 4.828 2.599 6.499 1.857 1.671 3.899 2.785 6.684 3.528 2.599.743 6.313 1.485 10.955 2.414 5.756 1.114 10.398 2.228 13.74 3.342 3.528 1.114 6.499 2.971 8.913 5.57s3.714 6.313 3.714 10.955c0 6.313-2.599 11.326-7.798 14.854-5.199 3.714-12.44 5.57-21.724 5.57-5.756-.186-11.326-.928-16.711-2.599m142.972-9.655c4.085-2.414 7.241-5.57 9.47-9.841s3.342-9.098 3.342-14.669c0-5.385-1.114-10.398-3.342-14.669s-5.385-7.613-9.47-9.841-8.541-3.528-13.74-3.528c-5.013 0-9.655 1.114-13.74 3.528s-7.241 5.57-9.47 9.841-3.528 9.098-3.528 14.669c0 5.385 1.114 10.398 3.528 14.669s5.57 7.613 9.47 9.841c4.085 2.228 8.541 3.528 13.74 3.528s9.655-1.114 13.74-3.528m-32.308 7.427c-5.57-3.157-9.841-7.427-13.183-12.997-3.157-5.57-4.828-11.883-4.828-18.753 0-7.056 1.671-13.369 4.828-18.753 3.157-5.57 7.613-9.841 13.183-12.997s11.698-4.642 18.753-4.642c6.87 0 13.183 1.485 18.753 4.642s9.841 7.427 12.997 12.997 4.642 11.883 4.642 18.753c0 7.056-1.485 13.369-4.642 18.753-3.157 5.57-7.427 9.841-12.997 12.997s-11.698 4.642-18.753 4.642-13.369-1.485-18.753-4.642m132.945-60.531c5.385 5.199 7.984 12.812 7.984 22.838v41.592h-9.655v-40.663c0-7.427-1.857-13.183-5.57-17.082s-9.098-5.942-15.968-5.942c-7.798 0-13.926 2.228-18.382 6.87S2804-186.204 2804-178.034v37.692h-9.655v-71.671h9.284v13.183c2.599-4.271 6.313-7.798 10.955-10.212s10.027-3.528 16.34-3.528c8.727 0 15.968 2.599 21.353 7.798m107.692 60.16a16.84 16.84 0 0 1-6.684 3.714c-2.599.928-5.57 1.3-8.355 1.3-6.684 0-11.883-1.857-15.597-5.385-3.714-3.714-5.385-8.727-5.385-15.411v-43.448h-12.812v-8.17h12.812v-15.597h9.655v15.597h21.91v8.17h-21.91v42.891c0 4.271 1.114 7.613 3.157 9.841 2.228 2.228 5.199 3.342 9.284 3.342 2.042 0 3.899-.371 5.756-.928s3.528-1.485 4.828-2.785l3.342 6.87h0zm75.756-60.16c5.385 5.199 7.984 12.812 7.984 22.838v41.592h-9.655v-40.663c0-7.427-1.857-13.183-5.57-17.082s-9.098-5.942-15.968-5.942c-7.798 0-13.926 2.228-18.382 6.87s-6.684 10.955-6.684 19.125v37.692h-9.655v-101.194h9.655v41.963c2.599-4.271 6.313-7.427 10.955-9.655s10.027-3.342 15.968-3.342c8.913 0 15.968 2.599 21.353 7.798m44.933 7.242c-4.642 4.456-7.427 10.212-7.984 17.268h50.876c-.557-7.056-3.342-12.812-7.984-17.268s-10.584-6.684-17.454-6.684-12.812 2.228-17.454 6.684m52.175 24.324h-60.159c.557 7.427 3.342 13.554 8.541 18.011 5.199 4.642 11.698 6.87 19.682 6.87 4.456 0 8.541-.743 12.255-2.414s6.87-3.899 9.655-7.056l5.385 6.313c-3.157 3.899-7.241 6.684-11.883 8.727-4.828 2.042-10.027 2.971-15.783 2.971-7.427 0-13.926-1.485-19.496-4.642-5.756-3.157-10.027-7.427-13.369-12.997-3.157-5.57-4.828-11.883-4.828-18.753 0-7.056 1.485-13.369 4.642-18.753 2.971-5.57 7.241-9.841 12.626-12.997s11.326-4.642 18.011-4.642 12.626 1.485 17.825 4.642 9.47 7.427 12.44 12.812c2.971 5.57 4.456 11.883 4.456 18.939v2.971h0zm160.797-38.807l-27.109 71.671h-9.098l-22.653-58.86-22.653 58.86h-9.098l-26.923-71.671h9.284l22.467 60.902 23.024-60.902h8.355l22.838 60.902 22.838-60.902h8.727 0zm48.276 61.088c3.899-2.414 6.87-6.127 8.727-10.769v-11.698h-22.467c-12.255 0-18.382 4.271-18.382 12.812 0 4.271 1.671 7.427 4.828 9.841s7.613 3.528 13.369 3.528c5.385 0 10.027-1.3 13.926-3.714m10.955-54.589c5.013 4.642 7.427 11.698 7.427 20.796v44.563h-9.284v-11.141c-2.228 3.714-5.385 6.684-9.655 8.727s-9.284 3.157-15.04 3.157c-7.984 0-14.297-1.857-19.125-5.756-4.642-3.899-7.056-8.913-7.056-15.226 0-6.127 2.228-10.955 6.684-14.669s11.512-5.57 21.167-5.57h22.838v-4.271c0-6.127-1.671-10.955-5.199-14.111s-8.541-4.828-15.226-4.828c-4.642 0-8.913.743-13.183 2.228s-7.798 3.528-10.769 6.127l-4.271-7.241c3.714-3.157 7.984-5.385 13.183-7.241 5.013-1.671 10.398-2.599 16.154-2.599 9.098 0 16.34 2.414 21.353 7.056m92.654-6.5l-35.836 80.398c-2.971 6.684-6.313 11.512-10.027 14.297-3.899 2.785-8.355 4.271-13.74 4.271-3.528 0-6.684-.557-9.655-1.671s-5.57-2.785-7.798-4.828l4.456-7.241c3.714 3.714 7.984 5.385 13.183 5.385 3.342 0 6.127-.928 8.355-2.785s4.456-4.828 6.499-9.284l3.157-6.87-32.122-71.671h10.027l26.923 60.902 26.923-60.902h9.655 0z" fill="#b5b5b5"/><path d="M1231.011-417.26s191.715 0 293.368 42.801c0 0 231.517 51.313 210.359 355.3h-187.256s14.997-149.156-16.618-217.736c0 0-45.233-132.052-214.331-141.05l5.512 232.976-91.115 130.836V-417.26h.081z" fill="#00a86b"/><path d="M1230.038-695.307s89.089-1.54 89.089 0v80.009h77.497v88.602h-77.983v81.063h-88.602v-80.496h-83.009v-89.089h83.009v-80.091h0zm466.925 93.466c-13.132-28.372-30.966-48.071-32.587-49.935-107.895-112.597-303.501-78.064-303.501-78.064h-2.999v71.498c172.097-8.593 200.307 108.706 200.307 108.706 6.485 22.13 7.782 44.423 5.674 65.904 2.675-15.402 1.621-9.241-.162 1.378-1.135 10.781-3.08 21.32-5.593 31.615-2.27 12.97-6.809 26.265-13.051 39.64-6.647 16.132-14.105 30.561-21.076 42.558-19.617 29.345-44.99 53.664-56.015 63.635l-5.512 4.783h0c-.162.162-.405.324-.567.486-31.128 31.939-57.717 53.34-57.798 53.421-155.317 150.535-173.07 232.003-173.07 232.003 58.933-83.901 170.8-151.102 233.057-184.095l14.429-7.539h0l1.459-.73c12.565-6.485 103.194-54.718 171.125-135.214l1.702-2.027a579.28 579.28 0 0 0 14.835-18.726c45.477-63.635 48.638-137.889 48.8-142.752-.324-41.018-10.538-74.902-19.455-96.546" fill="#b5b5b5"/><defs ><path id="B" d="M2500.603-370.582v59.231h-247.136V-630.53h241.195v59.231h-167.852v69.258h148.17v57.374h-148.17v73.9l173.794.186h0z"/></defs></svg>