<svg xmlns="http://www.w3.org/2000/svg" viewBox="0 0 512 512"  xmlns:v="https://vecta.io/nano"><path d="M255.8 419.7l-14.3-16.3c-32.7-38.2-63.8-77.6-91.3-119.8-16.8-25.7-31.9-52.3-43.3-80.9-13.3-33.2-12.3-66.4.4-99.1 21.9-56.3 63-91.5 122.5-101.2C292.4-7.8 344.2 13.9 383 64.2c22.8 29.5 32.8 63.6 30.9 100.9-.8 15.9-6.2 30.7-12.3 45.3-14.1 33.5-33.3 64.1-54 93.8-27.3 39.3-57.3 76.6-89 112.4-.8 1-1.7 1.9-2.8 3.1zm97-274.8C352.2 91 309 47.7 256.2 48c-54.9.4-97.9 44-97.3 98.6.6 53.4 45 96 99.5 95.2 51.7-.6 95.1-45.1 94.4-96.9z" fill="#00a86b"/><path d="M317.5 365.8c1.8-4.2 4.6-5 8.9-4.7 21.8 1.9 43.5 4.2 64.9 9 12.7 2.8 25.2 6.3 36.7 12.6 5.5 3 11 6.6 15.6 10.9 14.6 13.4 17.2 31.8 7.5 49.2-5.9 10.6-14.6 18.6-24.4 25.5-19.4 13.6-41 22.4-63.6 29.1-41.1 12.1-83.2 16.1-125.9 14.2-32.8-1.4-64.9-6.5-96.2-16.7-21.8-7.1-42.7-16.2-61-30.4-7.1-5.5-13.3-11.8-18.1-19.4-12-19-8.2-40.5 9.4-54.4 11.5-9 24.8-14.1 38.6-17.8 23.9-6.5 48.3-9.4 72.9-11.3l3.3-.3c5.1-.5 5.5-.3 8 4.8l-22.8 3.5c-20.9 3.6-41.5 8.6-61.1 17.1-9.9 4.3-19.5 9.3-27.1 17.1-10.6 10.9-10.3 22 .9 32.4 8.1 7.6 17.8 12.4 27.9 16.6 20.4 8.3 41.7 13 63.3 16.3 42.8 6.6 85.8 7.5 128.9 3.9 29.6-2.5 59-7 87.1-17.2 9.3-3.4 18.4-7.9 27.1-12.7 4.6-2.5 8.7-6.4 12.3-10.3 7.4-8.2 7.4-17.3.5-26-4.7-6-10.8-10.3-17.4-14-18.7-10.5-39.1-16.4-59.9-20.6-11.9-2.5-24.1-4.3-36.3-6.4z" fill="#03e086"/><path d="M331.5 148.1c2.7.5 4.4 3.1 3.9 5.7l-1.9 9.8c-.5 2.7-3.2 4.5-6 3.8-2.6-.6-4.1-3.2-3.6-5.8l.1-.3-12.7.6c-.4 0-.7.3-.8.6-1.3 3.8-2.9 7.3-4.9 10.7-.2.3-.2.8.1 1.1l5.6 6.7c1.1-1.1 2.6-1.6 4.1-1.6 1.3 0 2.5.4 3.6 1.2 2.6 2 3.1 5.7 1.1 8.3l-1.6 2.1c-1.9 2.5-5.5 3.2-8.1 1.4-2.3-1.6-3-4.3-2.3-6.7l-8.1-3.6c-.4-.2-.8-.1-1.1.2-3.8 4.1-8.1 7.7-13 10.5-.3.2-.5.6-.5.9l2.1 12.7 1.8-.7c2.6-1 5.5.3 6.4 3 .9 2.5-.5 5.2-2.9 6.2l-9.2 3.7c-2.6 1-5.5-.3-6.4-3-.9-2.5.5-5.2 2.9-6.2l.2-.1-7.4-10.4c-.2-.3-.6-.5-1-.4-4.4 1.2-9.1 1.8-13.9 1.8-3.8 0-7.5-.4-11.1-1.1-.4-.1-.8.1-1 .4l-7.4 11.6.3.1c2.4.9 3.9 3.2 3.9 5.6 0 .7-.1 1.4-.4 2 0 3.5-2.7 5.4-5.9 4.2l-9.1-3.3c-3-1.1-4.6-4.5-3.6-7.5 1.1-3.2 4.7-4.8 7.8-3.6l.2.1 1.5-13.7c0-.4-.2-.8-.5-.9a55.1 55.1 0 0 1-15.3-11.7c-.3-.3-.7-.4-1-.2l-11.1 4.6c1.3 2.3.5 5.3-1.7 6.9-2.4 1.6-5.6.9-7.3-1.5l-2.9-4.1c-1.6-2.3-1.2-5.5 1-7.2 2.3-1.8 5.7-1.4 7.4.9l7.9-8.8c.3-.3.3-.7.1-1.1-3.2-5.8-5.4-12.3-6.4-19.1-.1-.4-.3-.7-.7-.8l-12.5-2.9v1.5c0 1.5-.6 2.8-1.6 3.8s-2.3 1.6-3.8 1.6a5.34 5.34 0 0 1-5.3-5.3l.1-9.1c0-3 2.5-5.5 5.5-5.4 2.9.1 5.2 2.4 5.2 5.3l12.4-2.9c.4-.1.7-.4.7-.8 1-7.2 3.4-14 6.9-20.1.2-.3.2-.8-.1-1.1l-5.9-7-.5.7c-1.6 2.1-4.7 2.5-6.7.8-1.9-1.6-2.2-4.5-.6-6.5l4-5.2c.9-1.2 2.3-1.9 3.7-1.9 1 0 2 .3 2.8.9 2 1.5 2.4 4.2 1.1 6.2l8.3 3.6c.4.2.8.1 1.1-.2a55.29 55.29 0 0 1 13.6-10.9c.3-.2.5-.6.5-.9l-1.9-12.7-1.8.7c-2.6 1-5.5-.4-6.4-3-.8-2.5.5-5.2 3-6.2l9.2-3.6c2.6-1 5.5.4 6.4 3 .8 2.5-.5 5.2-3 6.2l-.2.1 7.3 10.5c.2.3.6.5 1 .4 4.2-1 8.6-1.6 13.2-1.6h0c.4 0 .8-.2.9-.6l2.4-6.7c-2.8-.9-4.7-3.6-4.3-6.6.4-3.4 3.7-5.8 7.1-5.4l3.3.4c3.4.5 5.9 3.5 5.5 6.9-.3 2.6-2.2 4.7-4.6 5.3l.8 7.3c0 .4.3.7.7.8 5.6 1.2 10.9 3.3 15.7 6.1.3.2.8.2 1-.1l10-8.1L295 88c-2.2-1.7-2.5-4.9-.6-7 1.7-2 4.8-2.2 6.8-.5l7.7 6.2c2.2 1.7 2.5 4.9.6 7-1.7 2-4.8 2.2-6.8.5l-.2-.2-5.3 11.6a.78.78 0 0 0 .2 1c3.8 3.8 7 8.3 9.5 13.1.2.3.5.5.9.5l7.6-1.1c-1.1-3.1.5-6.6 3.7-7.6 3-1 6.3.7 7.4 3.7l1.7 4.7c1.1 3-.2 6.3-3.1 7.6a5.95 5.95 0 0 1-7.4-2.3l-6.3 4.3c-.3.2-.5.6-.4 1a54.91 54.91 0 0 1 2 14.7c0 .9 0 1.7-.1 2.5 0 .4.2.7.5.9l11.8 5.2.4-1.9c.7-2.6 3.2-4.3 5.9-3.8h0z" fill="#00bf6d"/><g fill="#008e57"><ellipse cx="281.9" cy="118.1" rx="7.8" ry="6.5"/><circle cx="253.7" cy="158.7" r="8.5"/><circle cx="286.9" cy="154.2" r="6.1" opacity=".5"/><circle cx="264.4" cy="184" r="5.9" opacity=".5"/><path d="M224.3 142.6c0-21.2 10.1-40.1 25.8-52-1.8.2-3.6.6-5.4 1-.4.1-.8-.1-1-.4l-7.3-10.5.2-.1c2.5-.9 3.8-3.7 3-6.2-.9-2.7-3.8-4-6.4-3L224 75c-2.5.9-3.8 3.7-3 6.2.9 2.7 3.8 4 6.4 3l1.8-.7 1.9 12.7c.1.4-.1.8-.5.9A55.29 55.29 0 0 0 217 108c-.3.3-.7.4-1.1.2l-8.3-3.6c1.3-2 .8-4.8-1.1-6.2-.9-.6-1.8-.9-2.8-.9-1.4 0-2.8.6-3.7 1.9l-4 5.2c-1.5 2-1.3 4.9.6 6.5 2.1 1.7 5.1 1.3 6.7-.8l.5-.7 5.9 7c.2.3.3.7.1 1.1-3.5 6.1-5.9 12.9-6.9 20.1-.1.4-.3.7-.7.8l-12.4 2.9c0-2.9-2.3-5.3-5.2-5.3-3-.1-5.4 2.4-5.5 5.4l-.1 9.1a5.27 5.27 0 0 0 5.3 5.3c1.5 0 2.8-.6 3.8-1.6 1-.9 1.6-2.3 1.6-3.8v-1.5l12.5 2.9c.4.1.6.4.7.8a52.01 52.01 0 0 0 6.4 19.1c.2.3.2.8-.1 1.1l-7.8 8.8c-1.7-2.3-5.1-2.8-7.4-.9-2.2 1.7-2.6 4.9-1 7.2l2.9 4.1c1.6 2.3 4.9 3.1 7.3 1.5 2.3-1.5 3-4.5 1.7-6.9l11.1-4.6c.4-.2.8-.1 1 .2 4.4 4.8 9.5 8.7 15.3 11.7.3.2.5.5.5.9l-1.5 13.7-.2-.1c-3.1-1.1-6.7.5-7.8 3.6-1.1 3 .5 6.4 3.6 7.5l9.1 3.3c3.3 1.2 5.9-.7 5.9-4.2.2-.7.4-1.4.4-2 0-2.4-1.5-4.7-3.9-5.6l-.3-.1 7.4-11.6c.2-.3.6-.5 1-.4 3.6.7 7.3 1.1 11.1 1.1h1.3c-20.4-10.7-34.6-32.5-34.6-57.6h0z" opacity=".5"/><circle cx="227.3" cy="169.8" r="6.2"/><path d="M273 142.6h-2.1c-1.3 0-2.3-1.1-2.3-2.3 0-1.3 1.1-2.3 2.3-2.3h2.1c1.3 0 2.3 1.1 2.3 2.3.1 1.3-1 2.3-2.3 2.3zm-27.8 41.3h-2.1c-1.3 0-2.3-1.1-2.3-2.3 0-1.3 1.1-2.3 2.3-2.3h2.1c1.3 0 2.3 1.1 2.3 2.3s-1 2.3-2.3 2.3z" opacity=".5"/><path d="M223.2 149.5h-2.1c-1.3 0-2.3-1.1-2.3-2.3 0-1.3 1.1-2.3 2.3-2.3h2.1c1.3 0 2.3 1.1 2.3 2.3a2.26 2.26 0 0 1-2.3 2.3z"/><path d="M265.1 108.2h-2.9c-1.3 0-2.3-1.1-2.3-2.3 0-1.3 1.1-2.3 2.3-2.3h2.9c1.3 0 2.3 1.1 2.3 2.3.1 1.2-1 2.3-2.3 2.3z" opacity=".5"/><path d="M284 176.2h-3.2c-1.3 0-2.3-1.1-2.3-2.3 0-1.3 1.1-2.3 2.3-2.3h3.2c1.3 0 2.3 1.1 2.3 2.3s-1 2.3-2.3 2.3h0z"/><ellipse transform="matrix(.7852 -.6192 .6192 .7852 -25.6794 175.1161)" cx="239.6" cy="124.6" rx="16.3" ry="13.6"/></g></svg>