<svg xmlns="http://www.w3.org/2000/svg" viewBox="0 0 512 512"  xmlns:v="https://vecta.io/nano"><style><![CDATA[.K{fill:#03e086}.L{fill:#13bf75}.M{fill:#00a86b}.N{fill:#00935b}.O{fill:#ebbaa1}]]></style><path d="M248.3 287.3c-13.6 7.2-29.2 11.4-45.7 11.4s-32.1-4.1-45.7-11.4C91 301.1 41.5 359.5 41.5 429.5v35.4l9 28.5 152.1 9 152.1-9 9-28.5v-35.4c0-70-49.5-128.4-115.4-142.2h0z" class="M"/><path d="M75.6 166.7s-28.1-37.8-29.3-92.4c-.1-3.1 2.6-5.4 5.7-5 6.3.9 16.7 1.6 26.4-1C107.9 60.4 136.9 1.9 187.9.2s61 22.1 61 22.1 18.8-11.2 46.8-7.5c42 5.7 78.9 69.7 41.4 157.6l-261.5-5.7z" fill="#424a5e"/><path d="M61.6 183.9c0 19 15.4 30.1 29 30.1l14.6-12.8c0-.1 12.8-17.3 12.8-17.4l-12.8-17.4c-4.3-2.4-9.3-3.7-14.6-3.7-13.6.1-25.1 9-29 21.2h0z" class="O"/><path d="M90.5 205c-13.6 0-25-8.9-29-21.1-.9 2.9-1.5 6-1.5 9.3 0 16.8 13.6 30.4 30.4 30.4 6 0 11.6-1.7 16.3-4.7l8-10.6-9.6-7c-4.3 2.4-9.3 3.7-14.6 3.7h0z" fill="#e8a990"/><path d="M344 183.9c0 19-15.4 30.1-29 30.1l-14.6-12.8c0-.1-12.8-17.3-12.8-17.4l12.8-17.4c4.3-2.4 9.3-3.7 14.6-3.7 13.6.1 25.1 9 29 21.2h0z" class="O"/><path d="M315.1 205c13.6 0 25-8.9 29-21.1.9 2.9 1.5 6 1.5 9.3 0 16.8-13.6 30.4-30.4 30.4-6 0-11.6-1.7-16.3-4.7l-8-10.6 9.6-7c4.3 2.4 9.3 3.7 14.6 3.7z" fill="#e8a990"/><path d="M202.7 289.1c53.9 0 97.6-41.6 97.6-106.6v-28c0-8.5-3.5-16.8-9.8-22.6-18.2-16.8-38.5-45.9-46.7-58.1a5.13 5.13 0 0 0-8.1-.6c-41.1 44.9-94.4 59.9-118.2 64.5-7.3 1.4-12.5 7.8-12.5 15.2v29.5c0 64.4 43.8 106.7 97.7 106.7z" fill="#fdd4bb"/><path d="M123.5 512h158.7l7.7-9.3-7.7-9.3H123.5l-7.7 9.3 7.7 9.3z" class="N"/><path d="M363.8 493.4l-37 9-37-9v-28.5h74v28.5zm-322.2 0l37 9 37-9v-28.5h-74v28.5z" fill="#fdd4bb"/><path d="M282.1 493.4h81.7V512h-81.7z" class="K"/><path d="M41.6,493.4H108l7.7,9.3L108,512H46.6c-2.8,0-5-2.2-5-5V493.4z" fill="#f7c4a8"/><path d="M156.7 287.2l-.2 3.6c0 25.5 20.7 46.2 46.2 46.2s46.2-20.7 46.2-46.2c0-1.2-.1-2.4-.2-3.6h-92z" class="O"/><path d="M202.7 280.1c-53.9 0-97.6-43.7-97.6-97.6V201c0 53.9 43.7 97.6 97.6 97.6s97.6-43.7 97.6-97.6v-18.6c0 54-43.7 97.7-97.6 97.7z" fill="#f7c4a8"/><path d="M297.6 493.4v-72.8c0-4.3-3.5-7.7-7.7-7.7s-7.7 3.5-7.7 7.7v72.8l7.7 9.3 7.7-9.3zm-174.1 0v-72.8c0-4.3-3.5-7.7-7.7-7.7s-7.7 3.5-7.7 7.7v72.8l7.7 9.3 7.7-9.3z" class="K"/><path d="M108,493.4h15.5V512H108V493.4z" class="L"/><path d="M415.8 414.3c-.1 26-10.8 49.5-28.1 66.4-16.8 16.3-39.7 26.4-65 26.3-51.3-.1-92.8-41.8-92.7-93.2.1-36.9 22-70.2 55.8-84.9 47-20.5 101.8 1 122.3 48 5.1 11.7 7.8 24.5 7.7 37.4z" fill="#008e57"/><path d="M322.9 512h-.2c-54-.1-97.9-44.2-97.7-98.2.1-38.9 23.2-74 58.8-89.6 24-10.5 50.6-11 75-1.4s43.5 28 54 52c5.5 12.5 8.2 25.8 8.2 39.4-.1 26.6-10.6 51.4-29.6 70-18.6 17.9-42.8 27.8-68.5 27.8zm0-185.9c-11.9 0-23.9 2.5-35.1 7.4-31.9 13.9-52.6 45.5-52.7 80.3-.1 48.4 39.2 88 87.6 88.1h.2c23 0 44.8-8.8 61.3-24.9 17.1-16.6 26.5-38.9 26.6-62.7h0c0-12.3-2.4-24.2-7.3-35.4-9.4-21.5-26.6-38.1-48.4-46.7-10.5-4.1-21.4-6.1-32.2-6.1zm46.5 69.6h-27.9v-27.9h-37.2v27.9h-27.9v37.1h27.9v27.9h37.2v-27.9h27.9z" class="K"/><path d="M228.2 251.4c-15.3-9.5-34.7-9.5-50 0-5 2.7-11.2.8-13.8-4.2-2.3-4.3-1.2-9.7 2.6-12.8 35.9-23.9 87.1-3.5 75.4 14.1-3.2 4.7-9.5 6-14.2 2.9zm-76-59.6c-5.6 0-10.2-4.6-10.2-10.2s4.6-10.2 10.2-10.2 10.2-4.6 10.2-10.2S167 151 172.6 151c19.5 0 10.2 40.8-20.4 40.8zm102.1 0c-30.6 0-40-40.8-20.4-40.8 5.6 0 10.2 4.6 10.2 10.2s4.6 10.2 10.2 10.2 10.2 4.6 10.2 10.2a10.18 10.18 0 0 1-10.2 10.2z" fill="#424a5e"/><path d="M464.9 261.2c2 .4 3.4 2.4 3 4.4l-1.5 7.5c-.4 2.1-2.5 3.4-4.6 2.9-2-.5-3.1-2.5-2.7-4.5v-.2l-9.7.4c-.3 0-.6.2-.6.5-1 2.9-2.2 5.6-3.7 8.2-.2.3-.1.6.1.8l4.3 5.1c.9-.8 2-1.2 3.1-1.2 1 0 1.9.3 2.7.9 2 1.5 2.4 4.3.8 6.3l-1.3 1.6c-1.5 1.9-4.2 2.4-6.2 1.1-1.7-1.2-2.3-3.3-1.7-5.1l-6.2-2.7c-.3-.1-.6 0-.8.2-2.9 3.2-6.2 5.9-9.9 8-.3.1-.4.4-.3.7l1.6 9.7 1.4-.6c2-.8 4.2.2 4.9 2.3.7 1.9-.4 4-2.2 4.7l-7 2.8c-2 .8-4.2-.2-4.9-2.3-.7-1.9.4-4 2.2-4.7l.2-.1-5.7-7.9c-.2-.2-.5-.3-.8-.3-3.4.9-6.9 1.4-10.6 1.4a40.22 40.22 0 0 1-8.5-.9c-.3 0-.6.1-.7.3l-5.7 8.9.2.1c1.8.7 3 2.4 3 4.3 0 .5-.1 1-.3 1.6 0 2.7-2.1 4.1-4.5 3.2l-7-2.5c-2.3-.8-3.5-3.4-2.7-5.8s3.6-3.6 6-2.7h.2l1.2-10.4c0-.3-.1-.6-.4-.7-4.4-2.3-8.4-5.3-11.7-8.9-.2-.2-.5-.3-.8-.2l-8.5 3.5a3.96 3.96 0 0 1-1.3 5.2c-1.8 1.2-4.3.7-5.6-1.2l-2.2-3.1c-1.2-1.7-.9-4.2.7-5.5 1.8-1.4 4.3-1 5.7.7l6-6.7c.2-.2.2-.6.1-.8-2.5-4.4-4.1-9.4-4.9-14.6 0-.3-.3-.5-.5-.6l-9.6-2.2v1.1c0 1.1-.5 2.1-1.2 2.9-.7.7-1.8 1.2-2.9 1.2-2.2 0-4.1-1.8-4-4.1l.1-7c0-2.3 1.9-4.2 4.2-4.1 2.2 0 4 1.9 4 4.1l9.5-2.2c.3-.1.5-.3.5-.6.7-5.5 2.6-10.7 5.2-15.4.1-.3.1-.6-.1-.8l-4.5-5.3-.4.5c-1.2 1.6-3.6 1.9-5.1.6-1.5-1.2-1.7-3.4-.5-5l3-4c.7-.9 1.8-1.4 2.8-1.4.7 0 1.5.2 2.1.7 1.5 1.1 1.8 3.2.9 4.8l6.3 2.7c.3.1.6 0 .8-.2 3-3.3 6.5-6.1 10.4-8.3.3-.1.4-.4.3-.7l-1.5-9.7-1.4.5c-2 .8-4.2-.3-4.9-2.3-.6-1.9.4-4 2.3-4.7l7.1-2.7c2-.8 4.2.3 4.9 2.3.6 1.9-.4 4-2.3 4.7l-.2.1 5.6 8a1.08 1.08 0 0 0 .7.3c3.2-.8 6.6-1.2 10.1-1.2h0c.3 0 .6-.2.7-.5l1.8-5.1c-2.1-.7-3.6-2.8-3.3-5.1.3-2.6 2.8-4.5 5.4-4.1l2.5.3c2.6.3 4.5 2.7 4.2 5.2-.2 2-1.7 3.6-3.5 4.1l.6 5.6c0 .3.3.5.6.6 4.3.9 8.3 2.5 12 4.7.3.1.6.1.8-.1l7.6-6.2-1.2-.9c-1.7-1.3-1.9-3.8-.5-5.4 1.3-1.5 3.6-1.7 5.2-.4l5.9 4.7c1.7 1.3 1.9 3.8.5 5.4-1.3 1.5-3.6 1.7-5.2.4l-.2-.1-4.1 8.9c-.1.3-.1.6.1.8 2.9 2.9 5.3 6.3 7.2 10 .1.3.4.4.7.4l5.8-.8c-.9-2.4.4-5 2.8-5.8 2.3-.8 4.8.5 5.7 2.8l1.3 3.6c.8 2.3-.2 4.8-2.4 5.8-2.1.9-4.5.1-5.7-1.8l-4.8 3.3c-.3.2-.4.5-.3.8 1 3.6 1.5 7.4 1.5 11.3v1.9c0 .3.2.6.4.7l9 3.9.3-1.4c.7-2.2 2.7-3.6 4.7-3.2h0z" class="M"/><g class="K"><ellipse cx="427" cy="238.3" rx="6" ry="5"/><circle cx="405.5" cy="269.3" r="6.5"/></g><g class="L"><circle cx="430.8" cy="265.9" r="4.7"/><circle cx="413.6" cy="288.6" r="4.5"/></g><path d="M383 257c0-16.2 7.7-30.6 19.7-39.8-1.4.2-2.8.5-4.1.8-.3.1-.6 0-.7-.3l-5.6-8 .2-.1c1.9-.7 2.9-2.8 2.3-4.7-.7-2.1-2.9-3.1-4.9-2.3l-7.1 2.7c-1.9.7-2.9 2.8-2.3 4.7.7 2.1 2.9 3.1 4.9 2.3l1.4-.5 1.5 9.7c0 .3-.1.6-.3.7-3.9 2.2-7.4 5-10.4 8.3-.2.2-.5.3-.8.2l-6.3-2.7c1-1.6.6-3.6-.9-4.8-.7-.5-1.4-.7-2.1-.7-1.1 0-2.1.5-2.8 1.4l-3 4c-1.2 1.5-1 3.8.5 5 1.6 1.3 3.9 1 5.1-.6l.4-.5 4.5 5.3c.2.2.2.6.1.8-2.7 4.6-4.5 9.8-5.2 15.4 0 .3-.3.5-.5.6l-9.5 2.2c0-2.2-1.7-4-4-4.1s-4.1 1.9-4.2 4.1l-.1 6.9c0 2.2 1.8 4.1 4 4.1 1.1 0 2.1-.4 2.9-1.2.7-.7 1.2-1.7 1.2-2.9v-1.1l9.6 2.2c.3.1.5.3.5.6a40.68 40.68 0 0 0 4.9 14.6c.1.3.1.6-.1.8l-6 6.8c-1.3-1.8-3.9-2.1-5.7-.7-1.7 1.3-2 3.8-.7 5.5l2.2 3.1c1.3 1.8 3.7 2.4 5.6 1.2 1.7-1.2 2.3-3.4 1.3-5.2l8.5-3.5c.3-.1.6 0 .8.2 3.3 3.6 7.3 6.7 11.7 8.9.3.1.4.4.4.7l-1.2 10.4h-.2c-2.4-.9-5.1.3-6 2.7-.8 2.3.4 4.9 2.7 5.8l7 2.5c2.5.9 4.5-.5 4.5-3.2.2-.5.3-1 .3-1.6a4.5 4.5 0 0 0-3-4.3l-.2-.1 5.7-8.9c.2-.3.5-.4.7-.3 2.7.6 5.6.9 8.5.9h1c-15.9-8.1-26.7-24.8-26.7-44h0z" class="N"/><circle cx="385.3" cy="277.8" r="4.7" class="K"/><path d="M420.2 257h-1.6a1.8 1.8 0 1 1 0-3.6h1.6a1.8 1.8 0 1 1 0 3.6zM399 288.6h-1.6a1.8 1.8 0 1 1 0-3.6h1.6a1.8 1.8 0 1 1 0 3.6z" class="L"/><path d="M382.1 262.3h-1.6a1.79 1.79 0 1 1 0-3.6h1.6a1.79 1.79 0 1 1 0 3.6z" class="K"/><path d="M414.2 230.7H412a1.79 1.79 0 1 1 0-3.6h2.2a1.79 1.79 0 1 1 0 3.6z" class="L"/><g class="K"><path d="M428.6 282.7h-2.4a1.79 1.79 0 1 1 0-3.6h2.4a1.79 1.79 0 1 1 0 3.6h0z"/><ellipse transform="matrix(.7852 -.6192 .6192 .7852 -65.857 296.6281)" cx="394.7" cy="243.2" rx="12.4" ry="10.4"/></g><path d="M397.4 165.7c.6.1 1.1.7.9 1.4l-.5 2.4c-.1.7-.8 1.1-1.4.9s-1-.8-.9-1.4v-.1l-3.1.1c-.1 0-.2.1-.2.2-.3.9-.7 1.8-1.2 2.6-.1.1 0 .2 0 .3l1.4 1.6c.3-.3.6-.4 1-.4.3 0 .6.1.9.3a1.55 1.55 0 0 1 .3 2l-.4.5c-.5.6-1.3.8-2 .3-.5-.4-.7-1-.5-1.6l-2-.9c-.1 0-.2 0-.3.1-.9 1-2 1.9-3.1 2.5-.1 0-.1.1-.1.2l.5 3.1.4-.2c.6-.3 1.3.1 1.6.7.2.6-.1 1.3-.7 1.5l-2.2.9c-.6.3-1.3-.1-1.6-.7-.2-.6.1-1.3.7-1.5h.1l-1.8-2.5c-.1-.1-.1-.1-.2-.1-1.1.3-2.2.4-3.4.4-.9 0-1.8-.1-2.7-.3-.1 0-.2 0-.2.1l-1.8 2.8h.1c.6.2.9.8.9 1.3 0 .2 0 .3-.1.5 0 .8-.6 1.3-1.4 1l-2.2-.8c-.7-.3-1.1-1.1-.9-1.8.3-.8 1.1-1.1 1.9-.9h.1l.4-3.3c0-.1 0-.2-.1-.2a12.91 12.91 0 0 1-3.7-2.8c-.1-.1-.2-.1-.3-.1l-2.7 1.1c.3.6.1 1.3-.4 1.7-.6.4-1.4.2-1.8-.4l-.7-1c-.4-.6-.3-1.3.2-1.7.6-.4 1.4-.3 1.8.2l1.9-2.1c.1-.1.1-.2 0-.3-.8-1.4-1.3-3-1.5-4.6 0-.1-.1-.2-.2-.2l-3-.7v.4c0 .4-.1.7-.4.9-.2.2-.6.4-.9.4-.7 0-1.3-.6-1.3-1.3V164c0-.7.6-1.3 1.3-1.3s1.3.6 1.3 1.3l3-.7c.1 0 .2-.1.2-.2.2-1.7.8-3.4 1.7-4.9v-.3l-1.4-1.7-.1.2c-.4.5-1.1.6-1.6.2s-.5-1.1-.2-1.6l1-1.3c.2-.3.6-.4.9-.4.2 0 .5.1.7.2.5.4.6 1 .3 1.5l2 .9c.1 0 .2 0 .3-.1.9-1 2.1-1.9 3.3-2.6.1 0 .1-.1.1-.2l-.5-3.1-.4.2c-.6.2-1.3-.1-1.5-.7s.1-1.3.7-1.5l2.2-.9c.6-.2 1.3.1 1.5.7s-.1 1.3-.7 1.5h-.1l1.8 2.5c.1.1.1.1.2.1 1-.3 2.1-.4 3.2-.4h0c.1 0 .2-.1.2-.1l.6-1.6c-.7-.2-1.1-.9-1-1.6.1-.8.9-1.4 1.7-1.3l.8.1c.8.1 1.4.8 1.3 1.7a1.63 1.63 0 0 1-1.1 1.3l.2 1.8c0 .1.1.2.2.2 1.4.3 2.6.8 3.8 1.5h.3l2.4-2-.4-.3c-.5-.4-.6-1.2-.2-1.7s1.1-.5 1.7-.1l1.9 1.5c.5.4.6 1.2.2 1.7s-1.1.5-1.7.1h-.1l-1.3 2.8v.3a12.44 12.44 0 0 1 2.3 3.2c0 .1.1.1.2.1l1.8-.3c-.3-.8.1-1.6.9-1.8.7-.2 1.5.2 1.8.9l.4 1.1c.3.7-.1 1.5-.8 1.8s-1.4 0-1.8-.6l-1.5 1c-.1.1-.1.2-.1.2a13.61 13.61 0 0 1 .5 3.6v.6c0 .1.1.2.1.2l2.9 1.2.1-.5c0-.4.6-.8 1.3-.7h0z" class="M"/><g class="K"><ellipse cx="385.4" cy="158.5" rx="1.9" ry="1.6"/><circle cx="378.6" cy="168.3" r="2.1"/></g><g class="L"><circle cx="386.6" cy="167.2" r="1.5"/><circle cx="381.2" cy="174.4" r="1.4"/></g><path d="M371.5 164.4c0-5.1 2.4-9.7 6.2-12.6-.4.1-.9.1-1.3.3-.1 0-.2 0-.2-.1l-1.8-2.5h.1c.6-.2.9-.9.7-1.5s-.9-1-1.5-.7l-2.2.9c-.6.2-.9.9-.7 1.5s.9 1 1.5.7l.4-.2.5 3.1c0 .1 0 .2-.1.2-1.2.7-2.3 1.6-3.3 2.6-.1.1-.2.1-.3.1l-2-.9c.3-.5.2-1.1-.3-1.5-.2-.2-.4-.2-.7-.2s-.7.2-.9.4l-1 1.3c-.4.5-.3 1.2.2 1.6s1.2.3 1.6-.2l.1-.2 1.4 1.7c.1.1.1.2 0 .3-.8 1.5-1.4 3.1-1.7 4.9 0 .1-.1.2-.2.2l-3 .7c0-.7-.6-1.3-1.3-1.3s-1.3.6-1.3 1.3v2.2c0 .7.6 1.3 1.3 1.3.4 0 .7-.1.9-.4.2-.2.4-.6.4-.9v-.5l3 .7c.1 0 .2.1.2.2.2 1.7.8 3.2 1.5 4.6v.3l-1.9 2.1c-.4-.6-1.2-.7-1.8-.2-.5.4-.6 1.2-.2 1.7l.7 1c.4.6 1.2.7 1.8.4.6-.4.7-1.1.4-1.7l2.7-1.1c.1 0 .2 0 .3.1 1.1 1.1 2.3 2.1 3.7 2.8.1 0 .1.1.1.2l-.4 3.3h-.1c-.8-.3-1.6.1-1.9.9-.3.7.1 1.5.9 1.8l2.2.8c.8.3 1.4-.2 1.4-1 .1-.2.1-.3.1-.5 0-.6-.4-1.1-.9-1.3h-.1l1.8-2.8c.1-.1.1-.1.2-.1.9.2 1.8.3 2.7.3h.3c-4.8-2.8-8.2-8-8.2-14.1h0z" class="N"/><circle cx="372.2" cy="171" r="1.5" class="K"/><path d="M383.3 164.4h-.5a.65.65 0 0 1-.6-.6.65.65 0 0 1 .6-.6h.5a.65.65 0 0 1 .6.6.65.65 0 0 1-.6.6zm-6.8 10h-.5a.65.65 0 0 1-.6-.6.65.65 0 0 1 .6-.6h.5a.65.65 0 0 1 .6.6c0 .3-.2.6-.6.6z" class="L"/><path d="M371.2 166.1h-.5a.65.65 0 0 1-.6-.6.65.65 0 0 1 .6-.6h.5a.65.65 0 0 1 .6.6.65.65 0 0 1-.6.6z" class="K"/><path d="M381.3 156.1h-.7a.65.65 0 0 1-.6-.6.65.65 0 0 1 .6-.6h.7a.65.65 0 0 1 .6.6c0 .3-.2.6-.6.6z" class="L"/><g class="K"><path d="M385.9 172.5h-.8a.65.65 0 0 1-.6-.6.65.65 0 0 1 .6-.6h.8a.65.65 0 0 1 .6.6.65.65 0 0 1-.6.6h0z"/><ellipse transform="matrix(.7852 -.6192 .6192 .7852 -18.5234 266.6899)" cx="375.2" cy="160" rx="3.9" ry="3.3"/></g><path d="M469.1 138.9a1.74 1.74 0 0 1 1.4 2.1l-.7 3.7c-.2 1-1.2 1.7-2.2 1.4-1-.2-1.5-1.2-1.3-2.2v-.1l-4.7.2c-.1 0-.3.1-.3.2-.5 1.4-1.1 2.7-1.8 4-.1.1-.1.3 0 .4l2.1 2.5c.4-.4 1-.6 1.5-.6s.9.1 1.3.5c1 .7 1.1 2.1.4 3.1l-.6.8c-.7.9-2 1.2-3 .5-.8-.6-1.1-1.6-.8-2.5l-3-1.3c-.1-.1-.3 0-.4.1-1.4 1.5-3 2.9-4.8 3.9-.1.1-.2.2-.2.4l.8 4.7.7-.3c1-.4 2.1.1 2.4 1.1.3.9-.2 1.9-1.1 2.3l-3.4 1.4c-1 .4-2.1-.1-2.4-1.1-.3-.9.2-1.9 1.1-2.3h.1l-2.8-3.9c-.1-.1-.2-.2-.4-.1-1.6.4-3.4.7-5.2.7-1.4 0-2.8-.1-4.1-.4-.1 0-.3 0-.4.1l-2.8 4.3h.1c.9.3 1.5 1.2 1.5 2.1 0 .2 0 .5-.1.8 0 1.3-1 2-2.2 1.6l-3.4-1.2c-1.1-.4-1.7-1.7-1.3-2.8.4-1.2 1.7-1.8 2.9-1.3h.1l.6-5.1c0-.1-.1-.3-.2-.3-2.2-1.1-4.1-2.6-5.7-4.4-.1-.1-.2-.1-.4-.1l-4.1 1.7c.5.9.2 2-.6 2.6-.9.6-2.1.3-2.7-.6l-1.1-1.5c-.6-.9-.5-2 .4-2.7s2.1-.5 2.8.4l2.9-3.3c.1-.1.1-.3 0-.4-1.2-2.2-2-4.6-2.4-7.1 0-.1-.1-.3-.3-.3l-4.7-1.1v.5c0 .5-.2 1-.6 1.4s-.9.6-1.4.6c-1.1 0-2-.9-2-2v-3.4c0-1.1.9-2 2-2s1.9.9 1.9 2l4.6-1.1c.1 0 .2-.1.3-.3.4-2.7 1.2-5.2 2.6-7.5.1-.1.1-.3 0-.4l-2.2-2.6-.2.2c-.6.8-1.7.9-2.5.3a1.73 1.73 0 0 1-.2-2.4l1.5-1.9c.3-.5.9-.7 1.4-.7.4 0 .7.1 1 .4.7.5.9 1.6.4 2.3l3.1 1.3c.1.1.3 0 .4-.1 1.5-1.6 3.2-3 5.1-4 .1-.1.2-.2.2-.4l-.7-4.7-.7.3c-1 .4-2.1-.1-2.4-1.1-.3-.9.2-1.9 1.1-2.3l3.4-1.3c1-.4 2.1.1 2.4 1.1.3.9-.2 1.9-1.1 2.3h-.1l2.7 3.9c.1.1.2.2.4.1 1.6-.4 3.2-.6 4.9-.6h0c.1 0 .3-.1.3-.2l.9-2.5c-1-.3-1.7-1.4-1.6-2.5.1-1.3 1.4-2.2 2.6-2l1.2.2c1.2.2 2.2 1.3 2.1 2.6-.1 1-.8 1.7-1.7 2l.3 2.7c0 .1.1.3.3.3 2.1.5 4.1 1.2 5.8 2.3.1.1.3.1.4 0l3.7-3-.6-.5c-.8-.6-.9-1.8-.2-2.6.6-.7 1.8-.8 2.5-.2l2.9 2.3c.8.6.9 1.8.2 2.6-.6.7-1.8.8-2.5.2l-.1-.1-2 4.3c-.1.1 0 .3.1.4 1.4 1.4 2.6 3.1 3.5 4.9.1.1.2.2.4.2l2.8-.4a2.16 2.16 0 0 1 1.4-2.8c1.1-.4 2.4.3 2.8 1.4l.6 1.7c.4 1.1-.1 2.4-1.2 2.8-1 .5-2.2 0-2.8-.9l-2.3 1.6c-.1.1-.2.2-.1.4.5 1.7.7 3.6.7 5.5v.9c0 .1.1.3.2.3l4.4 1.9.1-.7c.1-1.2 1.1-1.8 2.1-1.6h0z" class="M"/><g class="K"><ellipse cx="450.6" cy="127.7" rx="2.9" ry="2.4"/><circle cx="440.1" cy="142.8" r="3.2"/></g><g class="L"><circle cx="452.5" cy="141.1" r="2.3"/><circle cx="444.1" cy="152.2" r="2.2"/></g><path d="M429.2 136.8c0-7.9 3.8-14.9 9.6-19.4-.7.1-1.4.2-2 .4-.1 0-.3 0-.4-.1l-2.7-3.9h.1c.9-.4 1.4-1.4 1.1-2.3-.3-1-1.4-1.5-2.4-1.1l-3.4 1.3c-.9.4-1.4 1.4-1.1 2.3.3 1 1.4 1.5 2.4 1.1l.7-.3.7 4.7c0 .1 0 .3-.2.4-1.9 1.1-3.6 2.4-5.1 4-.1.1-.3.1-.4.1l-3.1-1.3c.5-.8.3-1.8-.4-2.3-.3-.2-.7-.4-1-.4-.5 0-1 .2-1.4.7l-1.5 1.9a1.73 1.73 0 0 0 .2 2.4c.8.6 1.9.5 2.5-.3l.2-.2 2.2 2.6c.1.1.1.3 0 .4-1.3 2.3-2.2 4.8-2.6 7.5 0 .1-.1.3-.3.3l-4.6 1.1c0-1.1-.9-2-1.9-2-1.1 0-2 .9-2 2v3.4c0 1.1.9 2 2 2 .5 0 1-.2 1.4-.6s.6-.9.6-1.4v-.5l4.7 1.1c.1 0 .2.1.3.3.4 2.6 1.2 5 2.4 7.1.1.1.1.3 0 .4l-2.9 3.3c-.6-.9-1.9-1-2.8-.4-.8.6-1 1.8-.4 2.7l1.1 1.5c.6.9 1.8 1.1 2.7.6.9-.6 1.1-1.7.6-2.6l4.1-1.7c.1-.1.3 0 .4.1 1.6 1.8 3.6 3.2 5.7 4.4.1.1.2.2.2.3l-.6 5.1h-.1c-1.2-.4-2.5.2-2.9 1.3s.2 2.4 1.3 2.8l3.4 1.2c1.2.4 2.2-.2 2.2-1.6.1-.2.1-.5.1-.8 0-.9-.6-1.8-1.5-2.1h-.1l2.8-4.3c.1-.1.2-.2.4-.1 1.3.3 2.7.4 4.1.4h.5c-7.7-4-12.9-12.1-12.9-21.5h0z" class="N"/><circle cx="430.3" cy="146.9" r="2.3" class="K"/><path d="M447.3 136.8h-.8c-.5 0-.9-.4-.9-.9s.4-.9.9-.9h.8c.5 0 .9.4.9.9s-.4.9-.9.9zm-10.4 15.4h-.8c-.5 0-.9-.4-.9-.9s.4-.9.9-.9h.8c.5 0 .9.4.9.9s-.4.9-.9.9z" class="L"/><path d="M428.7 139.4h-.7c-.5 0-.9-.4-.9-.9s.4-.9.9-.9h.8c.5 0 .9.4.9.9-.1.5-.5.9-1 .9z" class="K"/><path d="M444.4 124h-1.1c-.5 0-.9-.4-.9-.9s.4-.9.9-.9h1.1c.5 0 .9.4.9.9-.1.5-.5.9-.9.9z" class="L"/><g class="K"><path d="M451.4 149.3h-1.2c-.5 0-.9-.4-.9-.9s.4-.9.9-.9h1.2c.5 0 .9.4.9.9s-.4.9-.9.9h0z"/><ellipse transform="matrix(.7852 -.6192 .6192 .7852 12.8379 297.2102)" cx="434.9" cy="130.1" rx="6.1" ry="5.1"/></g></svg>