<svg xmlns="http://www.w3.org/2000/svg" viewBox="0 0 512 512"  xmlns:v="https://vecta.io/nano"><path d="M17.4 481.1c0 13.9 10.9 21.3 19.5 21.3h71.9c8.6 0 19.5-9 19.5-21.3-3.3-6.9-10.1-11.8-18.1-12.3 3.5-3.8 5.7-8.8 5.7-14.3 0-11.6-9.4-21-21-21h-.1c-4.5-7.6-3.7-18.3-2.3-25.8.9-4.8-3.2-9-8-8.3-32.1 5.1-33.3 34.1-33.3 34.1h-.1c-11.6 0-21 9.4-21 21 0 5.5 2.2 10.6 5.7 14.3-8.3.5-15.1 5.4-18.4 12.3h0z" fill="#e5907b"/><path d="M479.3 493.4l9-28.5v-35.4c0-70-49.5-128.4-115.4-142.2-13.6 7.2-29.2 11.4-45.7 11.4s-32.1-4.1-45.7-11.4c-65.9 13.8-115.4 72.2-115.4 142.2v35.4l9 28.5 155.6 9 148.6-9z" fill="#00a86b"/><path d="M200.1 166.7s-28.1-37.8-29.3-92.4c-.1-3.1 2.6-5.4 5.7-5 6.3.9 16.7 1.6 26.4-1C232.4 60.4 261.4 1.9 312.4.2c51.1-1.7 61 22.1 61 22.1s18.8-11.2 46.8-7.4c42 5.7 78.9 69.7 41.4 157.6l-261.5-5.8z" fill="#424a5e"/><path d="M186 183.9c0 19 15.4 30.1 29 30.1l14.6-12.8c0-.1 12.8-17.3 12.8-17.4l-12.8-17.4c-4.3-2.4-9.3-3.7-14.6-3.7-13.6.1-25.1 9-29 21.2h0z" fill="#ebbaa1"/><path d="M214.9 205c-13.6 0-25-8.9-29-21.1-.9 2.9-1.5 6-1.5 9.3 0 16.8 13.6 30.4 30.4 30.4 6 0 11.6-1.7 16.3-4.7l8-10.6-9.6-7c-4.3 2.4-9.3 3.7-14.6 3.7h0z" fill="#e8a990"/><path d="M468.4 183.9c0 19-15.4 30.1-29 30.1l-14.6-12.8c0-.1-12.8-17.3-12.8-17.4l12.8-17.4c4.3-2.4 9.3-3.7 14.6-3.7 13.6.1 25.1 9 29 21.2h0z" fill="#ebbaa1"/><path d="M439.5 205c13.6 0 25-8.9 29-21.1.9 2.9 1.5 6 1.5 9.3 0 16.8-13.6 30.4-30.4 30.4-6 0-11.6-1.7-16.3-4.7l-8-10.6 9.6-7c4.3 2.4 9.3 3.7 14.6 3.7z" fill="#e8a990"/><path d="M327.2 289.1c53.9 0 97.6-37.9 97.6-106.6v-28c0-8.5-3.5-16.8-9.8-22.6-18.2-16.8-38.5-45.9-46.7-58.1a5.13 5.13 0 0 0-8.1-.6c-41.1 44.9-94.4 59.9-118.2 64.5-7.3 1.4-12.5 7.8-12.5 15.2v29.5c.1 64.9 43.8 106.7 97.7 106.7h0z" fill="#fdd4bb"/><path d="M247.9 512h158.7l7.7-9.3-7.7-9.3H247.9l-7.7 9.3 7.7 9.3z" fill="#00935b"/><path d="M281.2 287.2l-.2 3.6c0 25.5 20.7 46.2 46.2 46.2s46.2-20.7 46.2-46.2c0-1.2-.1-2.4-.2-3.6h-92z" fill="#ebbaa1"/><path d="M488.3 493.4l-37 9-37-9v-28.5h74v28.5zm-322.2 0l37 9 37-9v-28.5h-74v28.5z" fill="#fdd4bb"/><path d="M422 512h61.3a4.95 4.95 0 0 0 5-5v-13.6H422l-7.7 9.3 7.7 9.3zm-250.9 0h61.3l7.7-9.3-7.7-9.3h-66.3V507a4.95 4.95 0 0 0 5 5h0z" fill="#f7c4a8"/><path d="M422 493.4v-72.8c0-4.3-3.5-7.7-7.7-7.7s-7.7 3.5-7.7 7.7v72.8l7.7 9.3 7.7-9.3z" fill="#03e086"/><path d="M406.5,493.4H422V512h-15.5V493.4z" fill="#13bf75"/><path d="M247.9 493.4v-72.8c0-4.3-3.5-7.7-7.7-7.7s-7.7 3.5-7.7 7.7v72.8l7.7 9.3 7.7-9.3z" fill="#03e086"/><path d="M232.4,493.4h15.5V512h-15.5V493.4z" fill="#13bf75"/><path d="M327.2 280.1c-53.9 0-97.6-43.7-97.6-97.6V201c0 53.9 43.7 97.6 97.6 97.6s97.6-43.7 97.6-97.6v-18.6c.1 54-43.7 97.7-97.6 97.7z" fill="#f7c4a8"/><path d="M108.8 493.4H36.9c-8.6 0-16-5-19.5-12.3-1.3 2.8-2.1 6-2.1 9.3 0 11.9 9.7 21.6 21.6 21.6h71.9c11.9 0 21.6-9.7 21.6-21.6 0-3.3-.8-6.5-2.1-9.3-3.5 7.3-10.9 12.3-19.5 12.3z" fill="#d58475"/><path d="M266.5 192.3c2.1 3.8 6.9 5 10.6 3l20-11.3c2.5-1.4 4-4.1 4-6.9-.1-2.9-1.7-5.4-4.2-6.8l-20-10.3c-3.8-2-8.5-.5-10.5 3.3s-.5 8.5 3.3 10.5l7.2 3.7-7.5 4.2c-3.7 2.1-5 6.9-2.9 10.6zm119.1-10.6l-7.5-4.2 7.2-3.7c3.8-2 5.3-6.6 3.3-10.5-2-3.8-6.7-5.3-10.5-3.3l-20 10.3c-2.5 1.3-4.2 3.9-4.2 6.8-.1 2.9 1.5 5.5 4 6.9l20 11.3c3.7 2.1 8.5.8 10.6-3 2.1-3.7.8-8.5-2.9-10.6h0zm-98.3 45.6c-2.7 3.3-2.2 8.3 1.2 10.9 3.3 2.7 8.2 2.2 10.9-1.2 1-1.3 3.9-3.8 6.3-4 .6.4 1.8 1.5 2.6 2.3 3.7 3.5 9.2 8.7 19.2 8.7s15.5-5.2 19.2-8.7c.8-.8 2-1.9 2.6-2.3 2.4.2 5.3 2.7 6.3 4 2.7 3.3 7.5 3.8 10.9 1.2 3.3-2.7 3.9-7.6 1.2-10.9-.8-1-8.1-9.7-18.6-9.7-6.2 0-10.1 3.8-13 6.5-3.1 2.9-4.9 4.5-8.5 4.5s-5.4-1.5-8.5-4.5c-2.9-2.7-6.9-6.5-13-6.5-10.6 0-18 8.7-18.8 9.7h0zm95.7-78.6c4.3 0 7.8-3.5 7.8-7.8v-7.5c0-4.3-3.5-7.8-7.8-7.8s-7.8 3.5-7.8 7.8v7.5c.1 4.4 3.5 7.8 7.8 7.8h0zm-22.7-21c4.3 0 7.8-3.5 7.8-7.8v-7.5c0-4.3-3.5-7.8-7.8-7.8s-7.8 3.5-7.8 7.8v7.5c.1 4.3 3.5 7.8 7.8 7.8zM335 145c4.3 0 7.8-3.5 7.8-7.8v-7.5c0-4.3-3.5-7.8-7.8-7.8s-7.8 3.5-7.8 7.8v7.5c0 4.3 3.5 7.8 7.8 7.8z" fill="#424a5e"/><path d="M210.9 283.9v-24.8c0-4.3-3.5-7.8-7.8-7.8s-7.8 3.5-7.8 7.8v24.8c0 4.3 3.5 7.8 7.8 7.8 4.4 0 7.8-3.5 7.8-7.8zm-44.8 36c4.3 0 7.8-3.5 7.8-7.8V240c0-4.3-3.5-7.8-7.8-7.8s-7.8 3.5-7.8 7.8v72.1c0 4.4 3.5 7.8 7.8 7.8h0zm278-60.8v24.8c0 4.3 3.5 7.8 7.8 7.8s7.8-3.5 7.8-7.8v-24.8c0-4.3-3.5-7.8-7.8-7.8s-7.8 3.5-7.8 7.8zm44.8-26.8c-4.3 0-7.8 3.5-7.8 7.8v72.1c0 4.3 3.5 7.8 7.8 7.8s7.8-3.5 7.8-7.8V240c0-4.2-3.5-7.7-7.8-7.7h0z" fill="#03e086"/></svg>