<svg xmlns="http://www.w3.org/2000/svg" xmlns:xlink="http://www.w3.org/1999/xlink" viewBox="0 0 512 512" xmlns:v="https://vecta.io/nano"><g fill="#13bf75"><circle cx="48.3" cy="166.4" r="18.7"/><circle transform="matrix(.9951 -.099009 .099009 .9951 -11.967 46.6139)" cx="463.7" cy="143.9" r="18.7"/></g><path d="M408.1 493.4l9-28.5v-35.4c0-70-49.5-128.4-115.4-142.2-13.6 7.2-29.2 11.4-45.7 11.4s-32.1-4.1-45.7-11.4c-65.9 13.8-115.4 72.2-115.4 142.2v35.4l9 28.5 155.6 9 148.6-9z" fill="#00a86b"/><path d="M128.9 166.7s-28.1-37.8-29.3-92.4c-.1-3.1 2.6-5.4 5.7-5 6.3.9 16.7 1.6 26.4-1C161.2 60.4 190.2 1.9 241.2.2c51.1-1.7 61 22.1 61 22.1S321 11.1 349 14.8c42 5.7 78.9 69.7 41.4 157.6l-261.5-5.7z" fill="#424a5e"/><path d="M114.8 183.9c0 19 15.4 30.1 29 30.1l14.6-12.8c0-.1 12.8-17.3 12.8-17.4l-12.8-17.4c-4.3-2.4-9.3-3.7-14.6-3.7-13.6.1-25.1 9-29 21.2h0z" fill="#ebbaa1"/><path d="M143.7 205c-13.6 0-25-8.9-29-21.1-.9 2.9-1.5 6-1.5 9.3 0 16.8 13.6 30.4 30.4 30.4 6 0 11.6-1.7 16.3-4.7l8-10.6-9.6-7c-4.3 2.4-9.3 3.7-14.6 3.7h0z" fill="#e8a990"/><path d="M397.2 183.9c0 19-15.4 30.1-29 30.1l-14.6-12.8c0-.1-12.8-17.3-12.8-17.4l12.8-17.4c4.3-2.4 9.3-3.7 14.6-3.7 13.6.1 25.1 9 29 21.2h0z" fill="#ebbaa1"/><path d="M368.3 205c13.6 0 25-8.9 29-21.1.9 2.9 1.5 6 1.5 9.3 0 16.8-13.6 30.4-30.4 30.4-6 0-11.6-1.7-16.3-4.7l-8-10.6 9.6-7c4.3 2.4 9.3 3.7 14.6 3.7z" fill="#e8a990"/><path d="M256 289.1c53.9 0 97.6-37.9 97.6-106.6v-28c0-8.5-3.5-16.8-9.8-22.6-18.2-16.8-38.5-45.9-46.7-58.1a5.13 5.13 0 0 0-8.1-.6c-41.1 44.9-94.4 59.9-118.2 64.5-7.3 1.4-12.5 7.8-12.5 15.2v29.5c.1 64.9 43.8 106.7 97.7 106.7z" fill="#fdd4bb"/><path d="M176.7 512h158.7l7.7-9.3-7.7-9.3H176.7l-7.7 9.3 7.7 9.3z" fill="#00935b"/><path d="M210 287.2l-.2 3.6c0 25.5 20.7 46.2 46.2 46.2s46.2-20.7 46.2-46.2c0-1.2-.1-2.4-.2-3.6h-92z" fill="#ebbaa1"/><path d="M417.1 493.4l-37 9-37-9v-28.5h74v28.5zm-322.2 0l37 9 37-9v-28.5h-74v28.5z" fill="#fdd4bb"/><path d="M350.8 512h61.3a4.95 4.95 0 0 0 5-5v-13.6h-66.3l-7.7 9.3 7.7 9.3zm-250.9 0h61.3l7.7-9.3-7.7-9.3H94.9V507a4.95 4.95 0 0 0 5 5h0z" fill="#f7c4a8"/><path d="M350.8 493.4v-72.8c0-4.3-3.5-7.7-7.7-7.7s-7.7 3.5-7.7 7.7v72.8l7.7 9.3 7.7-9.3z" fill="#03e086"/><path d="M335.3,493.4h15.5V512h-15.5V493.4z" fill="#13bf75"/><path d="M176.7 493.4v-72.8c0-4.3-3.5-7.7-7.7-7.7s-7.7 3.5-7.7 7.7v72.8l7.7 9.3 7.7-9.3z" fill="#03e086"/><path d="M161.2,493.4h15.5V512h-15.5V493.4z" fill="#13bf75"/><path d="M256 280.1c-53.9 0-97.6-43.7-97.6-97.6V201c0 53.9 43.7 97.6 97.6 97.6s97.6-43.7 97.6-97.6v-18.6c0 54-43.7 97.7-97.6 97.7z" fill="#f7c4a8"/><g fill="#424a5e"><path d="M215.8 227.3c-2.7 3.3-2.2 8.3 1.2 10.9 3.3 2.7 8.2 2.2 10.9-1.2 1-1.3 3.9-3.8 6.3-4 .6.4 1.8 1.5 2.6 2.3 3.7 3.5 9.2 8.7 19.2 8.7s15.5-5.2 19.2-8.7c.8-.8 2-1.9 2.6-2.3 2.4.2 5.3 2.7 6.3 4 2.7 3.3 7.5 3.8 10.9 1.2 3.3-2.7 3.9-7.6 1.2-10.9-.8-1-8.1-9.7-18.6-9.7-6.2 0-10.1 3.8-13 6.5-3.1 2.9-4.9 4.5-8.5 4.5s-5.4-1.5-8.5-4.5c-2.9-2.8-6.9-6.5-13-6.5-10.7 0-18 8.7-18.8 9.7h0z"/><use xlink:href="#B"/><use xlink:href="#B" x="94.7"/></g><path d="M136.7 127.6c-.4 0-.9 0-1.3-.1-78.3-13.4-94.8-34-94.8-48.9 0-19.4 26-34.7 77.2-45.5 4.2-.9 8.3 1.8 9.2 6s-1.8 8.3-6 9.2c-21.1 4.5-38.4 10-49.9 16.1-9.4 4.9-15 10.3-15 14.3 0 6.8 17.1 22.6 81.9 33.6 4.2.7 7 4.7 6.3 8.9-.7 3.7-3.9 6.4-7.6 6.4h0zm241.1-.5c-3.7 0-7-2.6-7.6-6.4-.7-4.2 2.1-8.2 6.3-9 62.8-11.1 79.4-26.6 79.4-33.2 0-4.9-8.7-13.6-33.3-21.9-4-1.4-6.2-5.8-4.8-9.8s5.8-6.2 9.8-4.8c29 9.9 43.8 22.2 43.8 36.6 0 14.7-16 35-92.2 48.5h-1.4z" fill="#03e086"/><defs ><path id="B" d="M193.6 192.3c1.5 1.5 3.5 2.3 5.5 2.3s4-.8 5.5-2.3l4.1-4.1 4.1 4.1c1.5 1.5 3.5 2.3 5.5 2.3s4-.8 5.5-2.3c3-3 3-7.9 0-11l-4.1-4.1 4.1-4.1c3-3 3-7.9 0-11-3-3-7.9-3-11 0l-4.1 4.1-4.1-4.1c-3-3-7.9-3-11 0-3 3-3 7.9 0 11l4.1 4.1-4.1 4.1a7.67 7.67 0 0 0 0 11h0z"/></defs></svg>