<svg xmlns="http://www.w3.org/2000/svg" viewBox="0 0 512 512"  xmlns:v="https://vecta.io/nano"><path d="M128.9 166.7s-28.1-37.8-29.3-92.4c-.1-3.1 2.6-5.4 5.7-5 6.3.9 16.7 1.6 26.4-1C161.2 60.4 190.2 1.9 241.2.2c51.1-1.7 61 22.1 61 22.1S321 11.1 349 14.8c42 5.7 78.9 69.7 41.4 157.6l-261.5-5.7z" fill="#424a5e"/><path d="M114.8 183.9c0 19.9 15.4 30.1 29 30.1l14.6-12.8v-.2l9-18.6-9-15.9c-4.3-2.4-9.3-3.7-14.6-3.7a30.45 30.45 0 0 0-29 21.1h0z" fill="#ebbaa1"/><path d="M143.7 205c-13.6 0-25-8.9-29-21.1-.9 2.9-1.5 6-1.5 9.3 0 16.8 13.6 30.4 30.4 30.4 6 0 11.6-1.7 16.3-4.7l7.9-8.1-9.5-9.6c-4.3 2.5-9.3 3.8-14.6 3.8h0z" fill="#e8a990"/><path d="M397.2 183.9c0 19.9-15.4 30.1-29 30.1l-14.6-12.8v-.2l-9-18.6 9-15.9c4.3-2.4 9.3-3.7 14.6-3.7a30.45 30.45 0 0 1 29 21.1h0z" fill="#ebbaa1"/><path d="M368.3 205c13.6 0 25-8.9 29-21.1.9 2.9 1.5 6 1.5 9.3 0 16.8-13.6 30.4-30.4 30.4-6 0-11.6-1.7-16.3-4.7l-7.9-8.1 9.5-9.6c4.3 2.5 9.3 3.8 14.6 3.8z" fill="#e8a990"/><path d="M256 289.1c53.9 0 97.6-43.5 97.6-106.6v-28c0-8.5-3.5-16.8-9.8-22.6-18.2-16.8-38.5-45.9-46.7-58.1a5.13 5.13 0 0 0-8.1-.6c-41.1 44.9-94.4 59.9-118.2 64.5-7.3 1.4-12.5 7.8-12.5 15.2v29.5c.1 64.9 43.8 106.7 97.7 106.7z" fill="#fdd4bb"/><path d="M301.7 287.3c-13.6 7.2-29.2 11.4-45.7 11.4s-32.1-4.1-45.7-11.4c-65.9 13.8-115.4 72.2-115.4 142.2v35.4l9 28.5 152.1 9 152.1-9 9-28.5v-35.4c0-70-49.5-128.4-115.4-142.2h0z" fill="#00a86b"/><path d="M176.7 512h158.7l7.7-9.3-7.7-9.3H176.7l-7.7 9.3 7.7 9.3z" fill="#00935b"/><path d="M210 287.2l-.2 3.6c0 25.5 20.7 46.2 46.2 46.2s46.2-20.7 46.2-46.2c0-1.2-.1-2.4-.2-3.6h-92z" fill="#ebbaa1"/><path d="M417.1 493.4l-37 9-37-9v-28.5h74v28.5zm-322.2 0l37 9 37-9v-28.5h-74v28.5z" fill="#fdd4bb"/><path d="M350.8 512h61.3a4.95 4.95 0 0 0 5-5v-13.6h-66.3l-7.7 9.3 7.7 9.3zm-250.9 0h61.3l7.7-9.3-7.7-9.3H94.9V507a4.95 4.95 0 0 0 5 5h0z" fill="#f7c4a8"/><path d="M203.8 237.4c-2.4 0-4.8-1.1-6.3-3.2L152 171.1a7.742 7.742 0 1 1 12.6-9l45.5 63.1a7.71 7.71 0 0 1-1.8 10.8c-1.3.9-2.9 1.4-4.5 1.4zm104.4 0c-1.6 0-3.2-.5-4.5-1.5a7.71 7.71 0 0 1-1.8-10.8l45.5-63.1a7.742 7.742 0 1 1 12.6 9l-45.5 63.1c-1.6 2.2-3.9 3.3-6.3 3.3h0z" fill="#03e086"/><path d="M178 241.3c-12.4-16.4-19.7-36.7-19.7-58.8V201c0 17.4 4.6 33.7 12.5 47.9l8.3 1.9-1.1-9.5zm156 0l-.9 9.5 8-1.9c8-14.1 12.5-30.5 12.5-47.9v-18.6c0 22.1-7.3 42.5-19.6 58.9h0z" fill="#f7c4a8"/><g fill="#00a86b"><path d="M178 241.3c10.7 27.2 46.1 47.8 78 47.8s63.4-20.6 78-47.8c-14.6-14.7-44.1-39.1-78-39.1s-63.3 24.4-78 39.1h0z"/><path d="M256 280.1c-31.8 0-60.1-15.2-78-38.8a187.97 187.97 0 0 0-7.2 7.6c16.7 29.7 48.6 49.8 85.1 49.8s68.4-20.1 85.1-49.8c-1.7-1.9-4.1-4.6-7.2-7.6a97.02 97.02 0 0 1-77.8 38.8h0z"/></g><path d="M176.7 493.4v-72.8c0-4.3-3.5-7.7-7.7-7.7s-7.7 3.5-7.7 7.7v72.8l7.7 9.3 7.7-9.3zm174.1 0v-72.8c0-4.3-3.5-7.7-7.7-7.7s-7.7 3.5-7.7 7.7v72.8l7.7 9.3 7.7-9.3z" fill="#03e086"/><path d="M161.2 493.4h15.5V512h-15.5v-18.6zm174.1 0h15.5V512h-15.5v-18.6z" fill="#13bf75"/><path d="M211.6 192.2c4.3 0 7.8-3.5 7.8-7.8v-13.8c0-4.3-3.5-7.8-7.8-7.8s-7.8 3.5-7.8 7.8v13.8c0 4.3 3.5 7.8 7.8 7.8zm88.8 0c4.3 0 7.8-3.5 7.8-7.8v-13.8c0-4.3-3.5-7.8-7.8-7.8s-7.8 3.5-7.8 7.8v13.8c.1 4.3 3.5 7.8 7.8 7.8z" fill="#424a5e"/></svg>