<svg xmlns="http://www.w3.org/2000/svg" viewBox="0 0 512 512"  xmlns:v="https://vecta.io/nano"><path d="M464.5 493.4l9-28.5v-35.4c0-70-49.5-128.4-115.4-142.2-13.6 7.2-29.2 11.4-45.7 11.4s-32.1-4.1-45.7-11.4c-65.9 13.8-115.4 72.2-115.4 142.2v63.9l161.1 9 152.1-9z" fill="#00a86b"/><path d="M185.3 166.7s-28.1-37.8-29.3-92.4c-.1-3.1 2.6-5.4 5.7-5 6.3.9 16.7 1.6 26.4-1C217.6 60.4 246.6 1.9 297.6.2c51.1-1.7 61 22.1 61 22.1s18.8-11.2 46.8-7.4c42 5.7 78.9 69.7 41.4 157.6l-261.5-5.8z" fill="#424a5e"/><path d="M171.2 183.9c0 19 15.4 30.1 29 30.1l14.6-12.8c0-.1 12.8-17.3 12.8-17.4l-12.8-17.4c-4.3-2.4-9.3-3.7-14.6-3.7-13.6.1-25.1 9-29 21.2z" fill="#ebbaa1"/><path d="M200.1 205c-13.6 0-25-8.9-29-21.1-.9 2.9-1.5 6-1.5 9.3 0 16.8 13.6 30.4 30.4 30.4 6 0 11.6-1.7 16.3-4.7l8-10.6-9.6-7c-4.3 2.4-9.3 3.7-14.6 3.7h0z" fill="#e8a990"/><path d="M453.6 183.9c0 19-15.4 30.1-29 30.1L410 201.2c0-.1-12.8-17.3-12.8-17.4l12.8-17.4c4.3-2.4 9.3-3.7 14.6-3.7 13.6.1 25.1 9 29 21.2z" fill="#ebbaa1"/><path d="M424.7 205c13.6 0 25-8.9 29-21.1.9 2.9 1.5 6 1.5 9.3 0 16.8-13.6 30.4-30.4 30.4-6 0-11.6-1.7-16.3-4.7l-8-10.6 9.6-7c4.3 2.4 9.3 3.7 14.6 3.7z" fill="#e8a990"/><path d="M266.1 287.2l-.2 3.6c0 25.5 20.7 46.2 46.2 46.2s46.2-20.7 46.2-46.2c0-1.2-.1-2.4-.2-3.6.1 0-92 1.2-92 0z" fill="#ebbaa1"/><path d="M312.4 289.1c53.9 0 97.6-37.9 97.6-106.6v-28c0-8.5-3.5-16.8-9.8-22.6-18.2-16.8-38.5-45.9-46.7-58.1a5.13 5.13 0 0 0-8.1-.6c-41.1 44.9-94.4 59.9-118.2 64.5-7.3 1.4-12.5 7.8-12.5 15.2v29.5c.1 64.9 43.8 106.7 97.7 106.7h0z" fill="#fdd4bb"/><path d="M312.4 280.1c-53.9 0-97.6-43.7-97.6-97.6V201c0 53.9 43.7 97.6 97.6 97.6S410 254.9 410 201v-18.6c.1 54-43.7 97.7-97.6 97.7z" fill="#f7c4a8"/><path d="M151.3 512h240.5l7.7-9.3-7.7-9.3H151.3V512z" fill="#00935b"/><path d="M473.5 493.4v-28.5h-74v28.5l37 9 37-9z" fill="#fdd4bb"/><path d="M473.5,493.4h-66.3l-7.7,9.3l7.7,9.3h61.3c2.8,0,5-2.2,5-5V493.4z" fill="#f7c4a8"/><path d="M407.2 493.4v-72.8c0-4.3-3.5-7.7-7.7-7.7s-7.7 3.5-7.7 7.7v72.8l7.7 9.3 7.7-9.3z" fill="#03e086"/><g fill="#13bf75"><path d="M391.8 493.4h15.5V512h-15.5v-18.6zm-330.3 9h159.2c17.1 0 31-15.2 31-40v-114c0-4.4-5.2-6.8-8.6-3.9l-35.9 31.4H61.5c-17.1 0-31 13.9-31 31v55.6c0 29.3 13.9 39.9 31 39.9z"/><path d="M220.7 493.4H61.5c-17.1 0-31-13.9-31-31V481c0 17.1 13.9 31 31 31h159.2c17.1 0 31-13.9 31-31v-18.6c0 17.2-13.9 31-31 31h0z"/></g><path d="M184.4 427.4c-1.2 0-2.3.3-3.3.7a10.31 10.31 0 0 0-10.1-8.3h-44.3l-9.3 23.6 9.3 23.6H171a10.31 10.31 0 0 0 10.1-8.3c1 .5 2.1.7 3.3.7 4.3 0 7.7-3.5 7.7-7.7v-16.5c0-4.3-3.5-7.8-7.7-7.8z" fill="#424a5e"/><path d="M126.6,419.8h-22.1c-5.7,0-10.3,4.6-10.3,10.3v26.5c0,5.7,4.6,10.3,10.3,10.3h22.1V419.8z" fill="#03e086"/><path d="M255.1 187.8c.5-.1 12.9-1.6 23.8-6.3 3.9-1.7 5.7-6.3 4-10.2s-6.3-5.7-10.2-4c-8.8 3.8-19.4 5.2-19.5 5.2a7.75 7.75 0 0 0-6.8 8.6 7.77 7.77 0 0 0 7.7 6.8c.3 0 .6-.1 1-.1h0zm90.6-6.4c10.9 4.7 23.3 6.3 23.8 6.3.3 0 .6.1.9.1a7.77 7.77 0 0 0 7.7-6.8 7.69 7.69 0 0 0-6.8-8.6c-.1 0-10.7-1.3-19.5-5.2-3.9-1.7-8.5.1-10.2 4-1.6 4 .2 8.5 4.1 10.2h0zm-52.5 57.9h38.4c4.3 0 7.8-3.5 7.8-7.8s-3.5-7.8-7.8-7.8h-38.4c-4.3 0-7.8 3.5-7.8 7.8s3.5 7.8 7.8 7.8z" fill="#424a5e"/><path d="M121 257.1h12.8L115 279.7c-1.9 2.3-2.3 5.5-1.1 8.3 1.3 2.7 4 4.5 7 4.5h29.4c4.3 0 7.8-3.5 7.8-7.8s-3.5-7.8-7.8-7.8h-12.8l18.8-22.5c1.9-2.3 2.3-5.5 1.1-8.3s-4-4.5-7-4.5H121c-4.3 0-7.8 3.5-7.8 7.8s3.5 7.7 7.8 7.7h0zm315.5-2.7c0 4.3 3.5 7.8 7.8 7.8h12.8l-18.8 22.5c-1.9 2.3-2.3 5.5-1.1 8.3s4 4.5 7 4.5h29.4c4.3 0 7.8-3.5 7.8-7.8s-3.5-7.8-7.8-7.8h-12.8l18.8-22.5c1.9-2.3 2.4-5.5 1.1-8.3-1.3-2.7-4-4.5-7-4.5h-29.4c-4.3 0-7.8 3.5-7.8 7.8h0zm-364-125.1h12.8l-18.8 22.5c-1.9 2.3-2.3 5.5-1.1 8.3 1.3 2.7 4 4.5 7 4.5H102c4.3 0 7.8-3.5 7.8-7.8s-3.5-7.8-7.8-7.8H89.1l18.8-22.5c1.9-2.3 2.3-5.5 1.1-8.3-1.3-2.7-4-4.5-7-4.5H72.5c-4.3 0-7.8 3.5-7.8 7.8.1 4.3 3.5 7.8 7.8 7.8h0z" fill="#03e086"/></svg>