<svg xmlns="http://www.w3.org/2000/svg" viewBox="0 0 512 512"  xmlns:v="https://vecta.io/nano"><path d="M63.4 55.7a22.58 22.58 0 0 0-22.6 22.6v34.9l22.6 9 22.6-9V78.4c.1-12.5-10.1-22.7-22.6-22.7z" fill="#ebf2f8"/><path d="M27.2 224.8c0 23.4 18.8 37.1 36.3 37.1s36.3-15.9 36.3-37.1c-2.1-8.3-7-15.5-13.6-20.5v-91H40.8v91c-6.6 5-11.5 12.2-13.6 20.5h0zm319.4 62.5c-13.6 7.2-29.2 11.4-45.7 11.4s-32.1-4.1-45.7-11.4c-65.9 13.8-115.4 72.2-115.4 142.2v35.4l9 28.5 152.1 9 152.1-9 9-28.5v-35.4c0-70-49.5-128.4-115.4-142.2h0z" fill="#00a86b"/><path d="M173.9 166.7s-28.1-37.8-29.3-92.4c-.1-3.1 2.6-5.4 5.7-5 6.3.9 16.7 1.6 26.4-1C206.2 60.4 235.2 1.9 286.2.2s61 22.1 61 22.1S366 11.1 394 14.8c42 5.7 78.9 69.7 41.4 157.6l-261.5-5.7z" fill="#424a5e"/><path d="M159.9 183.9c0 19 15.4 30.1 29 30.1l14.6-12.8c0-.1 12.8-17.3 12.8-17.4l-12.8-17.4c-4.3-2.4-9.3-3.7-14.6-3.7-13.6.1-25.1 9-29 21.2h0z" fill="#ebbaa1"/><path d="M188.8 205c-13.6 0-25-8.9-29-21.1-.9 2.9-1.5 6-1.5 9.3 0 16.8 13.6 30.4 30.4 30.4 6 0 11.6-1.7 16.3-4.7l8-10.6-9.6-7c-4.3 2.4-9.3 3.7-14.6 3.7h0z" fill="#e8a990"/><path d="M442.3 183.9c0 19-15.4 30.1-29 30.1l-14.6-12.8c0-.1-12.8-17.3-12.8-17.4l12.8-17.4c4.3-2.4 9.3-3.7 14.6-3.7 13.6.1 25.1 9 29 21.2h0z" fill="#ebbaa1"/><path d="M413.4 205c13.6 0 25-8.9 29-21.1.9 2.9 1.5 6 1.5 9.3 0 16.8-13.6 30.4-30.4 30.4-6 0-11.6-1.7-16.3-4.7l-8-10.6 9.6-7c4.3 2.4 9.3 3.7 14.6 3.7z" fill="#e8a990"/><path d="M301 289.1c53.9 0 97.6-41.6 97.6-106.6v-28c0-8.5-3.5-16.8-9.8-22.6-18.2-16.8-38.5-45.9-46.7-58.1a5.13 5.13 0 0 0-8.1-.6c-41.1 44.9-94.4 59.9-118.2 64.5-7.3 1.4-12.5 7.8-12.5 15.2v29.5c0 64.4 43.8 106.7 97.7 106.7z" fill="#fdd4bb"/><path d="M221.8 512h158.7l7.7-9.3-7.7-9.3H221.8l-7.7 9.3 7.7 9.3z" fill="#00935b"/><path d="M462.1 493.4l-37 9-37-9v-28.5h74v28.5zm-322.2 0l37 9 37-9v-28.5h-74v28.5z" fill="#fdd4bb"/><path d="M462.1 493.4h-66.2l-7.7 9.3 7.7 9.3h61.2a4.95 4.95 0 0 0 5-5v-13.6zm-322.2 0h66.4l7.7 9.3-7.7 9.3h-61.4a4.95 4.95 0 0 1-5-5v-13.6z" fill="#f7c4a8"/><path d="M255 287.2l-.2 3.6c0 25.5 20.7 46.2 46.2 46.2s46.2-20.7 46.2-46.2c0-1.2-.1-2.4-.2-3.6h-92z" fill="#ebbaa1"/><path d="M301 280.1c-53.9 0-97.6-43.7-97.6-97.6V201c0 53.9 43.7 97.6 97.6 97.6s97.6-43.7 97.6-97.6v-18.6c0 54-43.7 97.7-97.6 97.7z" fill="#f7c4a8"/><path d="M395.9 493.4v-72.8c0-4.3-3.5-7.7-7.7-7.7s-7.7 3.5-7.7 7.7v72.8l7.7 9.3 7.7-9.3z" fill="#03e086"/><path d="M380.4,493.4h15.5V512h-15.5V493.4z" fill="#13bf75"/><path d="M221.8 493.4v-72.8c0-4.3-3.5-7.7-7.7-7.7s-7.7 3.5-7.7 7.7v72.8l7.7 9.3 7.7-9.3z" fill="#03e086"/><path d="M206.3,493.4h15.5V512h-15.5V493.4z" fill="#13bf75"/><path d="M254 127.8h93.7c8.5 0 15.5-11 15.5-24.5V87c0-8.5-7-15.5-15.5-15.5H254c-8.5 0-15.5 7-15.5 15.5v16.4c0 18.5 7 24.4 15.5 24.4z" fill="#03e086"/><path d="M63.4 253c-17.5 0-32.1-12-36.3-28.1-.8 3-1.2 6.1-1.2 9.3 0 20.7 16.8 37.4 37.4 37.4s37.4-16.8 37.4-37.4c0-3.2-.4-6.3-1.2-9.3C95.6 241 80.9 253 63.4 253h0z" fill="#00935b"/><path d="M347.8 118.8H254c-8.5 0-15.5-7-15.5-15.5v18.6c0 8.5 7 15.5 15.5 15.5h93.7c8.5 0 15.5-7 15.5-15.5v-18.6c0 8.6-6.9 15.5-15.4 15.5z" fill="#13bf75"/><path d="M243.8 187.8c.5-.1 12.9-1.6 23.8-6.3 3.9-1.7 5.7-6.3 4-10.2s-6.3-5.7-10.2-4c-8.8 3.8-19.4 5.2-19.5 5.2-4.2.5-7.3 4.4-6.8 8.6a7.77 7.77 0 0 0 7.7 6.8c.3-.1.6-.1 1-.1h0zm90.6-6.4c10.9 4.7 23.3 6.3 23.8 6.3.3 0 .6.1.9.1a7.77 7.77 0 0 0 7.7-6.8 7.69 7.69 0 0 0-6.8-8.6c-.1 0-10.6-1.3-19.5-5.2-3.9-1.7-8.5.1-10.2 4-1.6 4 .2 8.5 4.1 10.2h0zm-48.5 67.5c4.3 0 7.8-3.5 7.8-7.8 0-5.3 3.4-9.8 7.4-9.8s7.4 4.5 7.4 9.8c0 4.3 3.5 7.8 7.8 7.8s7.8-3.5 7.8-7.8c0-14-10.3-25.3-22.9-25.3s-22.9 11.4-22.9 25.3c-.2 4.3 3.3 7.8 7.6 7.8h0z" fill="#424a5e"/><path d="M174.7 252.9c3.1-2.9 3.4-7.8.5-10.9-2.9-3.2-7.8-3.4-11-.5-.5.5-12.5 11.5-9.6 27.1 1.5 7.9 5 12.2 7.6 15.4s4.1 5 4.1 10.9c0 4.3 3.5 7.8 7.8 7.8s7.8-3.5 7.8-7.8c0-11.4-4.2-16.6-7.6-20.7-2.2-2.7-3.6-4.4-4.4-8.4-1.3-7 4.5-12.7 4.8-12.9h0zm253.1 21.2c-3.4 4.1-7.6 9.3-7.6 20.7 0 4.3 3.5 7.8 7.8 7.8s7.8-3.5 7.8-7.8c0-5.9 1.5-7.7 4.1-10.9s6.1-7.5 7.6-15.4c2.9-15.6-9.1-26.7-9.6-27.1-3.2-2.9-8.1-2.7-11 .5s-2.7 8.1.5 10.9c.1.1 6.1 5.8 4.8 12.9-.8 4-2.3 5.7-4.4 8.4h0zm48.9-25.1c-.4-.5-.9-.9-1.3-1.3-1.3-1-3-1.6-4.8-1.6-4.3 0-7.8 3.5-7.8 7.8 0 2.1.8 4 2.2 5.4l.2.2c1.1 1.1 6.4 7 5.1 16.6-.8 6.1-3.9 10-7.9 15-5.1 6.4-11.5 14.3-11.5 27.7 0 4.3 3.5 7.8 7.8 7.8s7.8-3.5 7.8-7.8c0-8 3.6-12.4 8.1-18 4.6-5.7 9.8-12.2 11.2-22.7 1.9-15.4-5.9-25.6-9.1-29.1h0zm-333.4 77.4c4.3 0 7.8-3.5 7.8-7.8 0-13.4-6.4-21.4-11.5-27.7-4-4.9-7.1-8.8-7.9-15-1.2-9.6 4.1-15.5 5.1-16.6l.2-.2c1.4-1.4 2.2-3.3 2.2-5.4 0-4.3-3.5-7.8-7.8-7.8-1.8 0-3.4.6-4.8 1.6-.5.4-.9.8-1.3 1.3-3.2 3.5-11 13.7-9 29 1.4 10.4 6.6 17 11.2 22.7 4.5 5.6 8.1 10 8.1 18 0 4.5 3.4 7.9 7.7 7.9h0z" fill="#00935b"/></svg>