<svg xmlns="http://www.w3.org/2000/svg" xmlns:xlink="http://www.w3.org/1999/xlink" viewBox="0 0 512 512" xmlns:v="https://vecta.io/nano"><path d="M337.7.2c-68.8-2.5-79.2 27.6-112.5 36.1-15.4 3.9-30.4.6-43.4-5.2-13.9-6.3-27.6 9-19.7 22.1 9.2 15.2 22.3 30.8 40.7 42.4h0l173.5 171.5s77.4-50 84.8-119.7C468.8 74.8 421.3 3.2 337.7.2h0z" fill="#424a5e"/><path d="M272.5 313.6l103.7-26.9V267l-36-58.9c-1.7-2.8-.3-6.5 2.8-7.4 14.3-4.3 24.6-17.9 23.8-33.8-.9-17.1-14.9-30.8-31.9-31.5-10-.4-19 3.6-25.4 10.2-2.3 2.4-6.2 2-7.9-.8l-17.8-29.1c-1-1.6-2.7-2.5-4.6-2.4-32.3 1.9-57.2-5.7-76.4-17.8v112.3l7 7-6.6 8c3.9 36.4 32.9 65.2 69.3 69v21.8z" fill="#fdd4bb"/><path d="M272.5 313.6v18.6l103.7-26.9v-18.6c-3.3-2.1-6.8-3.7-10.5-4.9-29.9-9.6-64 3.4-93.2 31.8h0z" fill="#f7c4a8"/><path d="M437.2 493.4c-2.7-48.2-15-174.8-71.5-193-66.7-21.5-154.2 69.7-162.3 193l122.4 9.6 111.4-9.6z" fill="#00a86b"/><path d="M203.4 493.4a298.06 298.06 0 0 0-.6 13.5c-.1 2.8 2.2 5.1 5 5.1h62.1l55.9-9 55.9 9h51.1a5 5 0 0 0 5-5.2l-.6-13.4H203.4z" fill="#00935b"/><path d="M374 493.4l-48.2 9.6-48.2-9.6V464H374v29.4z" fill="#fdd4bb"/><path d="M285.4 512h80.8l7.7-9.3-7.7-9.3h-80.8l-7.7 9.3 7.7 9.3z" fill="#f7c4a8"/><path d="M381.7 493.4v-88.8c0-4.3-3.5-7.7-7.7-7.7s-7.7 3.5-7.7 7.7v88.8l7.7 9.3 7.7-9.3zm-96.3 0v-88.8c0-4.3-3.5-7.7-7.7-7.7s-7.7 3.5-7.7 7.7v88.8l7.7 9.3 7.7-9.3z" fill="#03e086"/><path d="M269.9 493.4h15.5V512h-15.5v-18.6zm96.3 0h15.5V512h-15.5v-18.6z" fill="#13bf75"/><path d="M229.3 232.7c1.2 2.9 4 4.7 7 4.7.9 0 1.9-.2 2.8-.5 3.9-1.5 5.7-5.9 4.2-9.7-7.8-19.6-30.3-20.1-40.5-19.3v6.7c0 2.8.2 5.6.5 8.3 6.3-.6 21.8-.9 26 9.8z" fill="#424a5e"/><g fill="#e84642"><use xlink:href="#B"/><use xlink:href="#B"/><use xlink:href="#B"/></g><path d="M125.3 171.9l7.4 7.4-9 9.6c-19.6 0-36.2 14-39.7 33.2-.1.5-.2.9-.2 1.4l-7.9 55c-1.5 10.6-5.2 17.2-10.1 17.2H25.9c-6.3 0-11.9-9.8-10.2-20.8l-.1.1 10.5-73.1 50-90.3h47.5l9 32.2-7.3 28.1z" fill="#03e086"/><path d="M68.8 156.7l7.3-45.1H65.9c-15.4 0-28.5 11.3-30.6 26.5l-6.5 45.1c11.6 18.7 35.7-6.8 40-26.5z" fill="#00935b"/><use xlink:href="#B" fill="#13bf75"/><path d="M28.8 183.2l-2.7 18.7c20.5 0 37.9-14.8 41.1-35l1.6-10.1c-6.6 14.9-23.4 25.4-40 26.4z" fill="#00935b"/><path d="M155 121.9v56.7c0 5.7-4.6 10.3-10.3 10.3h-21.1v-77.3h21.1c5.7 0 10.3 4.6 10.3 10.3z" fill="#13bf75"/><path d="M206 358.5c-4.3 0-7.8-3.5-7.8-7.8 0-5.9-1.5-7.7-4.1-10.9s-6.1-7.5-7.6-15.4c-2.9-15.6 9.1-26.7 9.6-27.1 3.2-2.9 8.1-2.6 11 .5 2.9 3.2 2.6 8-.5 10.9-.2.2-6.1 5.9-4.8 12.8.7 4 2.2 5.7 4.4 8.4 3.4 4.1 7.6 9.3 7.6 20.7-.1 4.4-3.6 7.9-7.8 7.9h0zm265.8 23.8c-4.3 0-7.8-3.5-7.8-7.8 0-13.4 6.4-21.4 11.5-27.7 4-4.9 7.1-8.8 7.9-15 1.4-10.5-5.2-16.6-5.2-16.7-3.2-2.8-3.5-7.7-.7-11 2.8-3.2 7.7-3.5 11-.7.5.5 12.8 11.5 10.3 30.3-1.4 10.4-6.6 16.9-11.2 22.7-4.5 5.6-8.1 10-8.1 18 .1 4.5-3.4 7.9-7.7 7.9h0zm-30.7-23.8c-4.3 0-7.8-3.5-7.8-7.8 0-11.4 4.2-16.6 7.6-20.7 2.2-2.7 3.6-4.4 4.4-8.4 1.3-7-4.7-12.7-4.7-12.8-3.2-2.9-3.4-7.8-.5-11s7.8-3.4 11-.5c.5.5 12.5 11.5 9.6 27.1-1.5 7.9-5 12.2-7.6 15.4s-4.1 5-4.1 10.9c-.1 4.3-3.6 7.8-7.9 7.8h0zm-265.9 23.8c4.3 0 7.8-3.5 7.8-7.8 0-13.4-6.4-21.4-11.5-27.7-4-4.9-7.1-8.8-7.9-15-1.4-10.5 5.2-16.6 5.2-16.7 3.2-2.8 3.5-7.7.7-11-2.8-3.2-7.7-3.5-10.9-.7-.5.5-12.8 11.5-10.3 30.3 1.4 10.4 6.6 16.9 11.2 22.7 4.5 5.6 8.1 10 8.1 18-.1 4.5 3.3 7.9 7.6 7.9h0z" fill="#00935b"/><path d="M263.4 168.3c-.1 0-10.3-1.3-19.8-8a7.71 7.71 0 1 0-9 12.6c12.9 9.2 26.5 10.7 27.1 10.8h.8c3.9 0 7.2-2.9 7.7-6.9.5-4.2-2.5-8-6.8-8.5h0z" fill="#424a5e"/><defs ><path id="B" d="M65.8 286.6H25.9c-6.3 0-11.1-5.6-10.2-11.8l-2.8 18.6c-.9 6.2 3.9 11.8 10.2 11.8H63c5.1 0 9.5-3.8 10.2-8.9l2.6-17.9c-1 4.8-5.2 8.2-10 8.2h0z"/></defs></svg>