<svg xmlns="http://www.w3.org/2000/svg" xmlns:xlink="http://www.w3.org/1999/xlink" viewBox="0 0 512 512" xmlns:v="https://vecta.io/nano"><path d="M85.9 407.1v8.9l24.8 19.5 83.2 1.5 15.4-14.9h0c.7-40.2-.8-138.3-32.4-138.3-33.4 0-77.8 93.8-91 123.3z" fill="#ebf2f8"/><path d="M199.8 493.3l19.6-24.6-10.5-29.8h0L117 450c.6 19.5 36.6 53.9 82.8 43.3h0z" fill="#fdd4bb"/><path d="M199.8 493.3c-39.5-1.5-68.8-24.5-82.8-43.3l-8.5-9.7-5.7 3.8h0s26.4 67.9 96.4 67.9h10.2l-9.6-18.7z" fill="#f7c4a8"/><path d="M117.6 227c7.5 7.5 19.8 7.5 27.3 0 4.4-4.4 7.6-14 7.6-24.8 0-.3-.1-.4-.1-.4s-22.8-4.6-34.8 7.5c-1.3 1.3-2.4 2.8-3.3 4.4 0 7.8 2 12 3.3 13.3zm-58.2 75.6c7.5 7.5 19.8 7.5 27.3 0 4.4-4.4 7.6-16.5 7.6-24.8 0-.3-.1-.4-.1-.4s-22.8-4.6-34.8 7.5c-1.3 1.3-2.4 2.8-3.3 4.4 0 6.2 2 12 3.3 13.3h0z" fill="#03e086"/><path d="M163.5 430.1c-1.3-.7-2.8-.8-4.2-.3-5.9 2.3-22.8 7.3-44.3 1.1-16.3-4.7-24.9-15.6-29.1-23.8-2.5 5.5-3.8 8.8-3.8 8.8s5.6 25.7 33 33.6c16.5 4.7 30.3 2.8 38.5.7l8.5-8.1 7 8.7c16.9 3.7 39.7-11.8 39.7-11.8s.3-6.5.5-16.8c-8.4 4.4-31.9 15.6-45.8 7.9z" fill="#d6e3ed"/><path d="M155.2 431.2l6.9 6.1 8.5-4.9 4.8-55.7c.4-4.3-2.8-8-7.1-8.4s-8 2.8-8.4 7l-4.7 55.9z" fill="#03e086"/><g fill="#13bf75"><path d="M155.2 431.2l-1.6 19c2.5-.6 4.4-1.3 5.8-1.8s2.9-.4 4.1.3c1.8 1 3.6 1.7 5.6 2.1l1.6-18.3c-2.6-.4-5-1.1-7.2-2.4-1.2-.7-2.8-.8-4.1-.3l-4.2 1.4h0z"/><use xlink:href="#B"/><use xlink:href="#B" x="58.2" y="-75.6"/></g><path d="M334 .2c-68.8-2.5-79.2 27.6-112.5 36.1-15.4 3.9-30.4.6-43.4-5.2-13.9-6.3-27.6 9-19.7 22.1 9.2 15.2 22.3 30.8 40.7 42.4h0l173.5 171.5s77.4-50 84.8-119.7C465.2 74.8 417.7 3.2 334 .2h0z" fill="#424a5e"/><path d="M268.8 313.6l103.7-26.9V267l-36-58.9c-1.7-2.8-.3-6.5 2.8-7.4 14.3-4.3 24.6-17.9 23.8-33.8-.9-17.1-14.9-30.8-31.9-31.5-10-.4-19 3.6-25.4 10.2-2.3 2.4-6.2 2-7.9-.8l-17.8-29.1c-1-1.6-2.7-2.5-4.6-2.4-32.3 1.9-57.2-5.7-76.4-17.8v110.6l7.1 8.5-6.8 7c3.4 36.9 32.6 66.4 69.4 70.2v21.8z" fill="#fdd4bb"/><path d="M268.8 313.6v18.6l103.7-26.9v-18.6c-3.3-2.1-6.8-3.7-10.5-4.9-29.8-9.6-63.9 3.4-93.2 31.8h0z" fill="#f7c4a8"/><path d="M433.6 493.4c-2.7-48.2-15-174.8-71.5-193-66.7-21.5-154.2 69.7-162.3 193l122.4 9.6 111.4-9.6z" fill="#00a86b"/><path d="M199.7 493.4a298.06 298.06 0 0 0-.6 13.5c-.1 2.8 2.2 5.1 5 5.1h62.1l55.9-9 55.9 9h51.1a5 5 0 0 0 5-5.2l-.6-13.4H199.7z" fill="#00935b"/><path d="M370.3 493.4l-48.2 9.6-48.2-9.6V464h96.3v29.4z" fill="#fdd4bb"/><path d="M281.8 512h80.8l7.7-9.3-7.7-9.3h-80.8l-7.7 9.3 7.7 9.3z" fill="#f7c4a8"/><path d="M378.1 493.4v-88.8c0-4.3-3.5-7.7-7.7-7.7s-7.7 3.5-7.7 7.7v88.8l7.7 9.3 7.7-9.3zm-96.3 0v-88.8c0-4.3-3.5-7.7-7.7-7.7s-7.7 3.5-7.7 7.7v88.8l7.7 9.3 7.7-9.3z" fill="#03e086"/><path d="M266.3 493.4h15.5V512h-15.5v-18.6zm96.3 0h15.5V512h-15.5v-18.6z" fill="#13bf75"/><path d="M226.5 231.9a7.79 7.79 0 0 0 7.2 4.9c.9 0 1.9-.2 2.9-.5 4-1.6 5.9-6.1 4.3-10.1-7.5-18.9-29.9-20.6-41.8-20.1v8.4a82.53 82.53 0 0 0 .3 7.1c8.2-.4 23.2.3 27.1 10.3h0zm35.3-50.6l-7.5-4.2 7.2-3.7c3.8-2 5.3-6.6 3.3-10.4s-6.6-5.3-10.4-3.3l-20 10.3c-2.5 1.3-4.1 3.9-4.2 6.8s1.5 5.5 4 6.9l20 11.3c3.7 2.1 8.5.8 10.6-3s.8-8.6-3-10.7z" fill="#424a5e"/><defs ><path id="B" d="M86.7 293.6c-7.5 7.5-19.8 7.5-27.3 0-1.3-1.3-2.4-2.8-3.3-4.4-4 7.3-2.9 16.7 3.3 23 7.5 7.5 19.8 7.5 27.3 0 11.1-11.1 8.1-31.2 7.6-34.4-1 5.7-3.2 11.5-7.6 15.8z"/></defs></svg>