<svg xmlns="http://www.w3.org/2000/svg" viewBox="0 0 512 512"  xmlns:v="https://vecta.io/nano"><path d="M417.1 493.4v-63.9c0-70-49.5-128.4-115.4-142.2-13.6 7.2-29.2 11.4-45.7 11.4s-32.1-4.1-45.7-11.4c-65.9 13.8-115.4 72.2-115.4 142.2v35.4l9 28.5 152.1 9 161.1-9z" fill="#00a86b"/><path d="M175.7 512h156.6l45.4-9 39.4 9v-18.6H175.7l-9 9.3 9 9.3z" fill="#00935b"/><path d="M94.9 493.4l37 9 37-9v-28.5h-74v28.5z" fill="#fdd4bb"/><path d="M94.9,493.4h65.3l9,9.3l-9,9.3H99.9c-2.8,0-5-2.2-5-5V493.4z" fill="#f7c4a8"/><path d="M316.5 493.4l46.3 9 38.2-9-75-87.8s21.2-28.6 8-41.8-27.6 6.9-27.6 6.9-15-33.7-50.4-33.7c-37.5 0-64.9 71.8 15.2 102.9l45.3 53.5z" fill="#fdd4bb"/><path d="M175.7 493.4v-72.8c0-4.3-3.5-7.7-7.7-7.7s-7.7 3.5-7.7 7.7v72.8l7.7 9.3 7.7-9.3z" fill="#03e086"/><path d="M160.2,493.4h15.5V512h-15.5V493.4z" fill="#13bf75"/><path d="M128.9 166.7s-28.1-37.8-29.3-92.4c-.1-3.1 2.6-5.4 5.7-5 6.3.9 16.7 1.6 26.4-1C161.2 60.4 190.2 1.9 241.2.2c51.1-1.7 61 22.1 61 22.1S321 11.1 349 14.8c42 5.7 78.9 69.7 41.4 157.6l-261.5-5.7z" fill="#424a5e"/><path d="M114.8 183.9c0 19 15.4 30.1 29 30.1l14.6-12.8c0-.1 12.8-17.3 12.8-17.4l-12.8-17.4c-4.3-2.4-9.3-3.7-14.6-3.7-13.6.1-25.1 9-29 21.2h0z" fill="#ebbaa1"/><path d="M143.7 205c-13.6 0-25-8.9-29-21.1-.9 2.9-1.5 6-1.5 9.3 0 16.8 13.6 30.4 30.4 30.4 6 0 11.6-1.7 16.3-4.7l8-10.6-9.6-7c-4.3 2.4-9.3 3.7-14.6 3.7h0z" fill="#e8a990"/><path d="M397.2 183.9c0 19-15.4 30.1-29 30.1l-14.6-12.8c0-.1-12.8-17.3-12.8-17.4l12.8-17.4c4.3-2.4 9.3-3.7 14.6-3.7 13.6.1 25.1 9 29 21.2h0z" fill="#ebbaa1"/><path d="M368.3 205c13.6 0 25-8.9 29-21.1.9 2.9 1.5 6 1.5 9.3 0 16.8-13.6 30.4-30.4 30.4-6 0-11.6-1.7-16.3-4.7l-8-10.6 9.6-7c4.3 2.4 9.3 3.7 14.6 3.7z" fill="#e8a990"/><path d="M256 289.1c53.9 0 97.6-37.9 97.6-106.6v-28c0-8.5-3.5-16.8-9.8-22.6-18.2-16.8-38.5-45.9-46.7-58.1a5.13 5.13 0 0 0-8.1-.6c-41.1 44.9-94.4 59.9-118.2 64.5-7.3 1.4-12.5 7.8-12.5 15.2v29.5c.1 64.9 43.8 106.7 97.7 106.7z" fill="#fdd4bb"/><path d="M210 287.2l-.2 3.6c0 25.5 20.7 46.2 46.2 46.2s46.2-20.7 46.2-46.2c0-1.2-.1-2.4-.2-3.6h-92z" fill="#ebbaa1"/><path d="M256 280.1c-53.9 0-97.6-43.7-97.6-97.6V201c0 53.9 43.7 97.6 97.6 97.6s97.6-43.7 97.6-97.6v-18.6c0 54-43.7 97.7-97.6 97.7zm60.5 213.3l15.7 18.6h84.6L401 493.4h-84.5z" fill="#f7c4a8"/><path d="M214 163.9c-8.3 8.1-18.1 11-18.3 11.1-4.1 1.1-6.5 5.4-5.4 9.5.9 3.5 4.1 5.7 7.5 5.7.7 0 1.4-.1 2-.3s13.7-3.8 25.1-14.9c3.1-3 3.1-7.9.1-11s-7.9-3.2-11-.1zm98.1 26a7.47 7.47 0 0 0 2 .3c3.4 0 6.5-2.3 7.5-5.7 1.1-4.1-1.3-8.4-5.4-9.6-.1 0-10-2.9-18.3-11.1-3.1-3-8-3-11 .1s-3 8 .1 11c11.4 11.1 24.6 14.8 25.1 15h0zm-48.7 51.2c0 4.3 3.5 7.8 7.8 7.8s7.8-3.5 7.8-7.8c0-14-10.3-25.3-22.9-25.3s-22.9 11.4-22.9 25.3c0 4.3 3.5 7.8 7.8 7.8s7.8-3.5 7.8-7.8c0-5.3 3.4-9.8 7.4-9.8 3.8 0 7.2 4.5 7.2 9.8h0z" fill="#424a5e"/><path d="M113.4 289.9c5.5 0 10.8-2.9 15.8-5.6 3.9-2.1 8.3-4.5 11.2-4.5 6 0 9.6 3.1 9.8 3.2 1.4 1.4 3.3 2.2 5.4 2.2 4.3 0 7.8-3.5 7.8-7.8 0-2.4-1.1-4.6-2.8-6-1.1-1-8.4-7.2-20.1-7.2-6.8 0-13.1 3.4-18.6 6.4-2.6 1.4-6.9 3.8-8.4 3.7-4.3-.2-7.9 3.1-8.1 7.4s3.1 7.9 7.4 8.1c.1.1.4.1.6.1h0zm75.3 31.8c-2.5 0-11.3.4-19.6 7.3-5.2 4.3-7.9 10.9-10.1 16.2-1.6 4 .3 8.5 4.3 10.1 3.9 1.6 8.5-.3 10.1-4.3 1.4-3.5 3.3-8.3 5.5-10.1 4.6-3.8 9.4-3.7 9.4-3.7 4.4.3 8.1-3.3 8.1-7.7 0-4.1-3.2-7.5-7.2-7.7.1 0-.5-.1-.5-.1h0zm209.9-31.8c-5.5 0-10.8-2.9-15.8-5.6-3.9-2.1-8.3-4.5-11.2-4.5-6 0-9.6 3.1-9.8 3.2-1.4 1.4-3.3 2.2-5.4 2.2-4.3 0-7.8-3.5-7.8-7.8 0-2.4 1.1-4.6 2.8-6 1.1-1 8.4-7.2 20.1-7.2 6.8 0 13.1 3.4 18.6 6.4 2.6 1.4 6.9 3.8 8.4 3.7 4.3-.2 7.9 3.1 8.1 7.4s-3.1 7.9-7.4 8.1c-.1.1-.4.1-.6.1zm-68.9 31.8c2.5 0 11.3.4 19.6 7.3 5.2 4.3 7.9 10.9 10.1 16.2 1.6 4-.3 8.5-4.3 10.1-3.9 1.6-8.5-.3-10.1-4.3-1.4-3.5-3.3-8.3-5.5-10.1-4.6-3.8-9.4-3.7-9.4-3.7-4.4.3-8.1-3.3-8.1-7.7 0-4.1 3.2-7.5 7.2-7.7-.1 0 .5-.1.5-.1h0z" fill="#03e086"/></svg>