<svg xmlns="http://www.w3.org/2000/svg" viewBox="0 0 512 512"  xmlns:v="https://vecta.io/nano"><path d="M354.3 161c-5.4 3.2-9.9 10.9-18 7.1-23.5-11.1-39.3-4.8-48.9 20-.6 1.5-1.4 2.7-2.6 3.5-21.7 13-43.9 25.1-68.4 36.4 1.8-5 2.4-9.9 5.9-10.2 11.9-.9 6-6.8 3.7-12.1l9.9-4.6c.4-1.5 1.8-4-1.5-3.3-3.1.7-6 2.4-9.5 3.8-1.1-6.5 4.8-13.2-1-19.4-1-1 .5-4 2.2-4.4 2.6-.7 3.8 1.6 4.1 3.7.9 5.8 4.5 10.1 8.1 14.4 5.4-6.5 12.6-8.9 20.8-9 4.8-.1 8.1-1.6 8.4-7.3.2-4 3.4-6.7 8.5-9.7-13.9-1.6-10.7-9.5-7.8-19-6.7 6.1-9.5 12-7.4 17.9 1.9 5.1-.6 8-2.2 11.7-.7 1.5-2.7 3.2-3.2 2.6-3.6-5-11-5-14-10.3-2.8-5-.3-8.2 4.5-10.8 5-2.8 5.2-8.7 6.7-13.5 4-13.7 12.3-17.5 24.6-10.9 15.3 8.2 17.2 7.9 33.2-5.9-12.6 2.1-15.2-4.4-14.7-13.8.2-3.5-1.1-6.2-4.4-8.2-21.2-13.1-44-21.5-68.7-24.8-1.3-.2-3-.8-4.4 1.7 9.3 3 5.3 7.2 1 11.5-3.1 3.2-3.7 7.5-4.7 11.6-1.6 6.4-1.3 13.4-7.1 18.2-1.1.9-1.8 2.1-1.2 4 3.7 10.1-4.4 13.3-10.7 15.5-11.1 3.9-20.4 9-25.3 20.2-2.8 6.3-5.8 3.8-7.9-.5-2.5-5.4-3.3-11.6-1-16.9 3-7.2 4.4-14.7 6.8-22 2-5.9 1.8-10.2-2.9-14.6-6-5.7-3.8-15.1 4.3-17.7 3.8-1.2 6.5-2.5 6.8-7.1-8.1 2.5-15.1 5.9-19.7 13.3-2.1 3.4-4.2 8.5-9.6 5.3-5.5-3.2-1.6-7.1.9-10.5-8.8-2.4-8.8-2.4-16 12.1-2.6-8.9-7.9-8.1-14-4.8-1.4.8-2.5 1.5-2.7 3.2-1.1 9.9-6.9 16.8-14.6 22.4-1.7 1.2-4.5 1.5-2.6 4.3 1.5 2.3 4.2 3.1 6.2.8 3.7-4.2 8.9-6.7 11.2-12.7 4.2-10.9 8.2-12.3 16.8-8.5l2.7.3c5.7 1.2 11.1 1.6 9.7 10.6-.7 4.5 7.5 9 2.2 15.1 6.4 9.3-7.2 12.2-6.5 20 .1 1.5-3.1 4.5-5.6 1.9-2.8-2.9-6.9-5.9-4.3-10.9 1.5-2.9 3.7-5.5 5.2-8.5 1.8-3.7 1.3-7.7-2.3-9.5-4.3-2.2-4.3 2.8-6 4.9-2.9 3.6-.9 11-8.5 11.1-.3 0-.9 1.6-.7 2.2 2.7 6.6-2.2 5.8-7 6.7l2.6-8.9c-25.6 9.9-24.2 21.1-9.2 40.7.4-1.3.5-2.9 1.2-3.3 8.1-4.5 7.8-13.6 11.7-20.5 1.4-2.4.4-8.1 5.8-4.9 3.3 2 9.5 3.5 4.9 9.8-.4.6-.2 1.6-.3 2.7 4 .4 5.2-4 8.7-4.8.8 9.6 4.9 18.3 4 27.9-.2 1.6-.6 3.7 1.4 4.9 2.7 1.5 4.8 3.6 1.8 6.3-2 1.9-5 2-7.7.9-3.8-1.6-2.5-4.1-1.3-6.6.4-.8.6-1.7 1.3-3.9-4.7 2.5-8.9 2.3-13.1 1.7-1.1 2.2.6 2.9 1.4 4 1.9 2.6 6.7 4.3 5.3 7.7-1.3 3.2-5.9 4.5-9.4 4.6-10.7.6-14.8 9.6-21.1 15.7-1.4 1.4-1.6 4.2-3 5.5-7.5 6.9-15.3 13.4-5.6 26.1-6.8-1.5-7.6-5.2-9.4-8-2.5-3.9-4.9-9.6-10.8-3.3-.6.7-2.3.4-3.4.5-11.2.7-15.9 7.8-12.8 18.9.9 3.2 2.3 5.6 5.7 6.3 3.2.6 6 .4 7.5-3.3 1-2.4 3-3.5 5.7-3.4-1.3 13.8-5.1 16.2-17.7 12.9-9-2.4-16.1-6.2-19.1-15.9-.9-3.2-2.1-7-6-8.6-3 7.8-2.6 15.8-1.1 23.9-5.3-.3-6.7-3.6-8.3-6.9-6.5-13.1-5.9-26.9-4.4-40.8 8.4-75.8 64.4-140.1 137.5-158.1 76.5-18.8 154.4 10.6 197.8 75.1 1.5 2.4 7.5 5.7 2.6 8.5zm-38.9 124.2c.7 3 3.3 1.5 5.3 1.5 3 0 6.4-4.5 8.7-.5 1.9 3.2-1.7 6-3.5 8.7l-12.8 18.8c-3.6 5.6-7.1 11.3-4.8 18.6.5 1.5.1 4-.9 5.2-8 10-10.9 23-19.2 32.8-2.2 2.6-4.4 4.8-7.5 6.4-9.9 5.3-11.7 4.8-14.9-6.1-3.6-12.2-10.9-23.9-6.1-37.6 1.1-3.1-1.2-6.4-2.5-9.5-2.3-5.5-6.2-10.6-4.1-17.2 1.1-3.2-3.2-3.2-3.7-5.6l47.8-19.7c4.2-1.6 8.2-7.3 13.7-2.1.5.5 1.3.1 2-.8 9.7-12.2 13.2-13.3 27.2-8.2-5.9 6.4-13.8 8.7-21.2 12-1.4.7-4.1.8-3.5 3.3z" fill="#00a86b"/><path d="M32.8 327.9C7.6 322-2.4 307.7.5 281.4c7.7 21.4 25.7 24.5 44.4 25 20.2.5 39.7-4.8 58.7-11.3 64-21.8 126.1-48.1 184.5-82.5 5.7-3.4 8.2-2.7 12.2 2.3 6.6 8.4 12.1 17.2 16 27.2 2.2 5.6 1 7.6-4.1 10-51.6 24.3-105 43.9-159.6 59.9-27.1 7.9-54.4 14.8-82.6 17.5-12.6 1.4-25 1.3-37.2-1.6z" fill="#03e086"/><path d="M382.4 234.5c10.3 83.2-38.4 163.4-117.2 193.6-78.7 30.1-168 2.7-216.4-66.4-2.4-3.4-4.6-6.8-7-10.3 9.2-3.1 14.4.3 19.7 7.7 20.3 28 51 50.1 81.5 59.6-1.6-6.7-5.8-11.7-8.1-17.5-4-10.3-7.8-20.8-10.9-31.4-2.9-10.1-5.4-20.1-17.3-24.5 21.8-5.9 43.1-11.2 63.9-17.9 3.1-1 4.6-.3 4 3.4l-3.8 25.1c-.1.9.1 2.3-.4 2.6-9.9 6.3-11.9 17.2-14.2 27-2.7 11.5-8.2 23.6-.7 35.7 2 3.3 5.2 2.9 7.9 3.5 87.7 19.6 178.4-35 202.2-121.9 2.2-8.2 3.6-16.6 5.2-24.9.5-2.7 1.5-6.5.2-8-7.1-7.7-2.2-13.5 2-20 2.9-4.4 2.5-9.9 2.2-15.1-.2-3.8 1.7-6.2 5-6.2 3.4.2 1.9 3.9 2.2 5.9z" fill="#00a86b"/><path d="M509.4 122.8c-4.9 7.9-12 13.7-19.8 18.4-13 7.8-25.9 15.8-39.2 22.9-5.6 3-6.7 6.6-6.4 12.3l3.7 87.3c.2 4.2.5 8.3-3.7 11.5-8.8 6.7-11.8 6-15.1-4.5l-22.3-73c-1.4-4.7-2.3-6.9-7.7-3.6-13.2 7.9-26.2 16.4-40.4 22.5-3.2 1.4-3.5 3.6-3.4 6.5.2 5.2 0 10.3.1 15.5.1 7-5.3 9.5-10.4 10.9-5.2 1.4-6.2-4-7.3-7.5-5.4-16.7-14-31.4-25.8-44.4-2.4-2.6-6.8-5.9-2.8-10 3.6-3.7 8.1-6.5 13.9-4.2.6.2 1.1.5 1.6.9 11.6 10.9 22.1 7.6 33.6-1.2 9.3-7.1 20.2-12.1 31.4-18.7L332 103.5c-2.6-2.8-7.9-5-4.5-10.4 3.3-5.1 12.3-7 17.7-3.7l53.2 33.2c8 5 16.3 9.5 23.8 15.1 5.1 3.7 8.8 2.9 13.7-.1 12.7-7.7 25.6-15 38.5-22.3 8-4.5 16.5-7.8 25.7-8.3 4.4-.3 8.8.5 11.1 4.7 1.9 3.7.3 7.6-1.8 11.1z" fill="#03e086"/></svg>