<svg xmlns="http://www.w3.org/2000/svg" viewBox="0 0 512 512"  xmlns:v="https://vecta.io/nano"><path d="M408.1 493.4l9-28.5v-35.4c0-70-49.5-128.4-115.4-142.2-13.6 7.2-29.2 11.4-45.7 11.4s-32.1-4.1-45.7-11.4c-65.9 13.8-115.4 72.2-115.4 142.2v35.4l9 28.5 155.6 9 148.6-9z" fill="#00a86b"/><path d="M128.9 166.7s-28.1-37.8-29.3-92.4c-.1-3.1 2.6-5.4 5.7-5 6.3.9 16.7 1.6 26.4-1C161.2 60.4 190.2 1.9 241.2.2c51.1-1.7 61 22.1 61 22.1S321 11.1 349 14.8c42 5.7 78.9 69.7 41.4 157.6l-261.5-5.7z" fill="#424a5e"/><path d="M114.8 183.9c0 19 15.4 30.1 29 30.1l14.6-12.8c0-.1 12.8-17.3 12.8-17.4l-12.8-17.4c-4.3-2.4-9.3-3.7-14.6-3.7-13.6.1-25.1 9-29 21.2h0z" fill="#ebbaa1"/><path d="M143.7 205c-13.6 0-25-8.9-29-21.1-.9 2.9-1.5 6-1.5 9.3 0 16.8 13.6 30.4 30.4 30.4 6 0 11.6-1.7 16.3-4.7l8-10.6-9.6-7c-4.3 2.4-9.3 3.7-14.6 3.7h0z" fill="#e8a990"/><path d="M397.2 183.9c0 19-15.4 30.1-29 30.1l-14.6-12.8c0-.1-12.8-17.3-12.8-17.4l12.8-17.4c4.3-2.4 9.3-3.7 14.6-3.7 13.6.1 25.1 9 29 21.2h0z" fill="#ebbaa1"/><path d="M368.3 205c13.6 0 25-8.9 29-21.1.9 2.9 1.5 6 1.5 9.3 0 16.8-13.6 30.4-30.4 30.4-6 0-11.6-1.7-16.3-4.7l-8-10.6 9.6-7c4.3 2.4 9.3 3.7 14.6 3.7z" fill="#e8a990"/><path d="M256 289.1c53.9 0 97.6-37.9 97.6-106.6v-28c0-8.5-3.5-16.8-9.8-22.6-18.2-16.8-38.5-45.9-46.7-58.1a5.13 5.13 0 0 0-8.1-.6c-41.1 44.9-94.4 59.9-118.2 64.5-7.3 1.4-12.5 7.8-12.5 15.2v29.5c.1 64.9 43.8 106.7 97.7 106.7z" fill="#fdd4bb"/><path d="M176.7 512h158.7l7.7-9.3-7.7-9.3H176.7l-7.7 9.3 7.7 9.3z" fill="#00935b"/><path d="M210 287.2l-.2 3.6c0 25.5 20.7 46.2 46.2 46.2s46.2-20.7 46.2-46.2c0-1.2-.1-2.4-.2-3.6h-92z" fill="#ebbaa1"/><path d="M417.1 493.4l-37 9-37-9v-28.5h74v28.5zm-322.2 0l37 9 37-9v-28.5h-74v28.5z" fill="#fdd4bb"/><path d="M350.8 512h61.3a4.95 4.95 0 0 0 5-5v-13.6h-66.3l-7.7 9.3 7.7 9.3zm-250.9 0h61.3l7.7-9.3-7.7-9.3H94.9V507a4.95 4.95 0 0 0 5 5h0z" fill="#f7c4a8"/><path d="M350.8 493.4v-72.8c0-4.3-3.5-7.7-7.7-7.7s-7.7 3.5-7.7 7.7v72.8l7.7 9.3 7.7-9.3z" fill="#03e086"/><path d="M335.3,493.4h15.5V512h-15.5V493.4z" fill="#13bf75"/><path d="M176.7 493.4v-72.8c0-4.3-3.5-7.7-7.7-7.7s-7.7 3.5-7.7 7.7v72.8l7.7 9.3 7.7-9.3z" fill="#03e086"/><path d="M161.2,493.4h15.5V512h-15.5V493.4z" fill="#13bf75"/><path d="M256 280.1c-53.9 0-97.6-43.7-97.6-97.6V201c0 53.9 43.7 97.6 97.6 97.6s97.6-43.7 97.6-97.6v-18.6c0 54-43.7 97.7-97.6 97.7z" fill="#f7c4a8"/><path d="M256 215.8c-15.4 0-28.2 11-31 25.6-.6 3.1 1.7 6 4.9 6h52.2c3.2 0 5.5-2.9 4.9-6-2.8-14.6-15.6-25.6-31-25.6h0z" fill="#424a5e"/><path d="M202.5 126.3c10.5 0 22.9-7.6 22.9-24.8-4-12.3-14.6-21.8-19.9-26-1.8-1.4-4.4-1.4-6.2 0-5.3 4.2-15.8 13.7-19.8 26 0 18.6 12.5 24.8 23 24.8h0z" fill="#03e086"/><path d="M199.9 184.7c.2 0 1.7-.5 3.9-1.4v1.1c0 4.3 3.5 7.8 7.8 7.8s7.8-3.5 7.8-7.8v-9.8c1.9-1.4 3.7-3 5.6-4.8 3.1-3 3.1-7.9.1-11s-7.9-3.1-11-.1c-8.3 8.1-18.1 11-18.3 11.1-4.1 1.1-6.5 5.4-5.4 9.5.9 3.5 4.1 5.7 7.5 5.7a7.47 7.47 0 0 0 2-.3h0zm87.1-25.9c-3 3.1-3 8 .1 11 1.8 1.8 3.7 3.4 5.6 4.8v9.8c0 4.3 3.5 7.8 7.8 7.8s7.8-3.5 7.8-7.8v-1.1c2.3.9 3.8 1.3 4 1.4a7.47 7.47 0 0 0 2 .3c3.4 0 6.5-2.3 7.5-5.7 1.1-4.1-1.3-8.4-5.4-9.6-.1 0-10-2.9-18.3-11.1-3.2-2.9-8.1-2.9-11.1.2h0z" fill="#424a5e"/><path d="M311.5 148.7c4.3 0 7.8-3.5 7.8-7.8v-7.5c0-4.3-3.5-7.8-7.8-7.8s-7.8 3.5-7.8 7.8v7.5c.1 4.4 3.5 7.8 7.8 7.8zm-22.7-21c4.3 0 7.8-3.5 7.8-7.8v-7.5c0-4.3-3.5-7.8-7.8-7.8s-7.8 3.5-7.8 7.8v7.5c.1 4.3 3.5 7.8 7.8 7.8zM263.5 145c4.3 0 7.8-3.5 7.8-7.8v-7.5c0-4.3-3.5-7.8-7.8-7.8s-7.8 3.5-7.8 7.8v7.5c0 4.3 3.5 7.8 7.8 7.8z" opacity=".4" fill="#03e086"/><path d="M135.4 290c3.6-2.4 4.5-7.2 2.1-10.8s-7.2-4.5-10.8-2.1c-19.8 13.3-38.2 32.6-53.2 55.8-2.3 3.6-1.3 8.4 2.3 10.7a8.13 8.13 0 0 0 4.2 1.2c2.6 0 5-1.3 6.5-3.6 14-21.3 30.8-39.1 48.9-51.2h0zm303 42.9c-15-23.2-33.4-42.5-53.2-55.8-3.6-2.4-8.4-1.4-10.8 2.1-2.4 3.6-1.4 8.4 2.1 10.8 18.1 12.1 35 29.9 48.8 51.3 1.5 2.3 4 3.6 6.5 3.6a8.13 8.13 0 0 0 4.2-1.2c3.7-2.4 4.8-7.2 2.4-10.8h0z" fill="#03e086"/><path d="M202.5 117.3a24.36 24.36 0 0 1-22.9-15.8c-1 3.1-1.6 6.4-1.6 9.8 0 13.6 11 24.6 24.6 24.6s24.6-11 24.6-24.6c0-3.4-.6-6.7-1.6-9.8-3.7 9.2-12.7 15.8-23.1 15.8z" fill="#13bf75"/></svg>